<svg width="34" height="37" viewBox="0 0 34 37" fill="none" xmlns="http://www.w3.org/2000/svg">
<path d="M26.7467 28.9972C24.8911 28.9972 23.4033 30.6102 23.4033 32.6219C23.4033 33.5832 23.7556 34.5051 24.3826 35.1849C25.0096 35.8646 25.8599 36.2465 26.7467 36.2465C27.6334 36.2465 28.4838 35.8646 29.1107 35.1849C29.7377 34.5051 30.09 33.5832 30.09 32.6219C30.09 31.6606 29.7377 30.7386 29.1107 30.0589C28.4838 29.3791 27.6334 28.9972 26.7467 28.9972ZM0 0V3.62465H3.34333L9.36133 17.3802L7.08786 21.8204C6.83711 22.3279 6.68666 22.9259 6.68666 23.5602C6.68666 24.5216 7.03891 25.4435 7.6659 26.1233C8.2929 26.803 9.14329 27.1849 10.03 27.1849H30.09V23.5602H10.7321C10.6213 23.5602 10.515 23.5125 10.4366 23.4275C10.3582 23.3426 10.3142 23.2273 10.3142 23.1072C10.3142 23.0165 10.3309 22.9441 10.3643 22.8897L11.8688 19.9356H24.3227C25.5765 19.9356 26.6798 19.1744 27.2482 18.0689L33.2327 6.34314C33.3497 6.05317 33.4333 5.74507 33.4333 5.43698C33.4333 4.95632 33.2572 4.49535 32.9437 4.15547C32.6302 3.81559 32.205 3.62465 31.7617 3.62465H7.03771L5.46635 0M10.03 28.9972C8.17445 28.9972 6.68666 30.6102 6.68666 32.6219C6.68666 33.5832 7.03891 34.5051 7.6659 35.1849C8.2929 35.8646 9.14329 36.2465 10.03 36.2465C10.9167 36.2465 11.7671 35.8646 12.3941 35.1849C13.0211 34.5051 13.3733 33.5832 13.3733 32.6219C13.3733 31.6606 13.0211 30.7386 12.3941 30.0589C11.7671 29.3791 10.9167 28.9972 10.03 28.9972Z" fill="#FF902A"/>
</svg>
