<svg xmlns="http://www.w3.org/2000/svg" height="1200" width="1600" version="1.1" xmlns:xlink="http://www.w3.org/1999/xlink" xmlns:svgjs="http://svgjs.com/svgjs"><rect fill="#e9f3f3" width="1600" height="1200"></rect><g><path d="M335.31 911.52V840.02L402.67 798.39V720.42H402.52L502.71 658.36H582.78L660.59 706.39C663.95 704.2 667.84 703.11 671.82 703.11H727.02C740.51 703.11 744.95 711.06 750.1 720.19 756.81 732.12 765.15 747.01 796.73 750.44V782.33H971.45V705.76L1021.35 654.93H1161.7L1211.59 705.68V788.33L1261.49 839.09V911.44H335.31V911.52Z" fill="#d7eeef" opacity="1" stroke-width="4" stroke="none"></path><path d="M602.97 720.42L502.71 658.44" stroke="#bce2e4" stroke-width="4" stroke-linecap="round" stroke-linejoin="round" opacity="1" fill="none"></path><path d="M403.61 720.42H603.21V910.51" stroke="#bce2e4" stroke-width="4" stroke-linecap="round" stroke-linejoin="round" opacity="1" fill="none"></path><path d="M400.1 910.9L401.04 799.32" stroke="#bce2e4" stroke-width="4" stroke-linecap="round" stroke-linejoin="round" opacity="1" fill="none"></path><path d="M336.24 840.02H399.87" stroke="#bce2e4" stroke-width="4" stroke-linecap="round" stroke-linejoin="round" opacity="1" fill="none"></path><path d="M401.19 826.69H601.73" stroke="#bce2e4" stroke-width="4" stroke-linecap="round" stroke-linejoin="round" opacity="1" fill="none"></path><path d="M969.19 855.07H1111.25" stroke="#bce2e4" stroke-width="4" stroke-linecap="round" stroke-linejoin="round" opacity="1" fill="none"></path><path d="M602.97 720.42H649.75" stroke="#bce2e4" stroke-width="4" stroke-linecap="round" stroke-linejoin="round" opacity="1" fill="none"></path><path d="M972.31 705.76H1111.64V910.51" stroke="#bce2e4" stroke-width="4" stroke-linecap="round" stroke-linejoin="round" opacity="1" fill="none"></path><path d="M1111.64 909.57V705.76H1209.65" stroke="#bce2e4" stroke-width="4" stroke-linecap="round" stroke-linejoin="round" opacity="1" fill="none"></path><path d="M742.46 752.23H795.71" stroke="#bce2e4" stroke-width="4" stroke-linecap="round" stroke-linejoin="round" opacity="1" fill="none"></path><path d="M1161.62 910.51V839.17H1259.94" stroke="#bce2e4" stroke-width="4" stroke-linecap="round" stroke-linejoin="round" opacity="1" fill="none"></path><path d="M1161.07 655.55L1111.64 705.76" stroke="#bce2e4" stroke-width="4" stroke-linecap="round" stroke-linejoin="round" opacity="1" fill="none"></path><path d="M1111.64 788.41L1161.62 839.17" stroke="#bce2e4" stroke-width="4" stroke-linecap="round" stroke-linejoin="round" opacity="1" fill="none"></path><path d="M1210.04 786.23H1112.11" stroke="#bce2e4" stroke-width="4" stroke-linecap="round" stroke-linejoin="round" opacity="1" fill="none"></path><path d="M672.91 704.9C641.96 704.9 659.11 746.23 603.21 752.23H742.69C686.63 746.23 703.87 704.9 672.91 704.9Z" stroke="#bce2e4" stroke-width="4" stroke-linecap="round" stroke-linejoin="round" opacity="1" fill="none"></path><path d="M603.21 909.57V752.23H742.62V910.51" stroke="#bce2e4" stroke-width="4" stroke-linecap="round" stroke-linejoin="round" opacity="1" fill="none"></path><path d="M742.46 909.57V797.84H969.19V910.51" stroke="#bce2e4" stroke-width="4" stroke-linecap="round" stroke-linejoin="round" opacity="1" fill="none"></path><path d="M742.85 795.74L795.24 780.61" stroke="#bce2e4" stroke-width="4" stroke-linecap="round" stroke-linejoin="round" opacity="1" fill="none"></path><path d="M969.19 783.34V797.84H742.46" stroke="#bce2e4" stroke-width="4" stroke-linecap="round" stroke-linejoin="round" opacity="1" fill="none"></path><path d="M772.09 911.52V839.09C772.09 830.59 779.03 823.73 787.45 823.73H787.68C796.18 823.73 803.04 830.67 803.04 839.09V911.52H772.09Z" fill="#ddf4f5" opacity="1" stroke-width="4" stroke="none"></path><path d="M910.72 911.52V839.09C910.72 830.59 917.65 823.73 926.07 823.73H926.31C934.81 823.73 941.67 830.67 941.67 839.09V911.52H910.72Z" fill="#ddf4f5" opacity="1" stroke-width="4" stroke="none"></path><path d="M841.4 911.52V839.09C841.4 830.59 848.34 823.73 856.76 823.73H856.99C865.49 823.73 872.35 830.67 872.35 839.09V911.52H841.4Z" fill="#ddf4f5" opacity="1" stroke-width="4" stroke="none"></path><path d="M1197.72 911.52V874.33C1197.72 865.83 1204.66 858.97 1213.08 858.97H1213.31C1221.81 858.97 1228.67 865.91 1228.67 874.33V911.52H1197.72Z" fill="#ddf4f5" opacity="1" stroke-width="4" stroke="none"></path><path d="M428.48 911.52V874.33C428.48 865.83 435.42 858.97 443.84 858.97H444.07C452.57 858.97 459.43 865.91 459.43 874.33V911.52H428.48Z" fill="#ddf4f5" opacity="1" stroke-width="4" stroke="none"></path><path d="M546.45 911.52V874.33C546.45 865.83 553.31 858.97 561.81 858.97H562.04C570.54 858.97 577.4 865.83 577.48 874.33V911.52H546.45Z" fill="#ddf4f5" opacity="1" stroke-width="4" stroke="none"></path><path d="M487.42 911.52V874.33C487.42 865.83 494.36 858.97 502.78 858.97H503.02C511.52 858.97 518.38 865.91 518.38 874.33V911.52H487.42Z" fill="#ddf4f5" opacity="1" stroke-width="4" stroke="none"></path><path d="M428.48 800.49V747.94H459.43L459.51 800.49H428.48Z" fill="#ddf4f5" opacity="1" stroke-width="4" stroke="none"></path><path d="M546.37 800.49V747.94H577.4V800.49H546.37Z" fill="#ddf4f5" opacity="1" stroke-width="4" stroke="none"></path><path d="M487.42 800.49V747.94H518.46V800.49H487.42Z" fill="#ddf4f5" opacity="1" stroke-width="4" stroke="none"></path><path d="M635.56 817.65L635.49 778.9H661.29V817.65H635.56Z" fill="#ddf4f5" opacity="1" stroke-width="4" stroke="none"></path><path d="M684.53 817.65V778.9H710.26V817.65H684.53Z" fill="#ddf4f5" opacity="1" stroke-width="4" stroke="none"></path><path d="M635.56 885.71L635.49 846.96 661.29 846.88V885.71H635.56Z" fill="#ddf4f5" opacity="1" stroke-width="4" stroke="none"></path><path d="M684.53 885.71V846.96L710.26 846.88V885.71H684.53Z" fill="#ddf4f5" opacity="1" stroke-width="4" stroke="none"></path><path d="M1003.03 766.03V727.28H1028.76L1028.84 766.03H1003.03Z" fill="#ddf4f5" opacity="1" stroke-width="4" stroke="none"></path><path d="M1052.07 766.03L1051.99 727.28H1077.8V766.03H1052.07Z" fill="#ddf4f5" opacity="1" stroke-width="4" stroke="none"></path><path d="M1151.01 766.03V727.28H1176.74L1176.82 766.03H1151.01Z" fill="#ddf4f5" opacity="1" stroke-width="4" stroke="none"></path><path d="M1003.03 834.02V795.27H1028.76L1028.84 834.02H1003.03Z" fill="#ddf4f5" opacity="1" stroke-width="4" stroke="none"></path><path d="M1052.07 834.02L1051.99 795.27H1077.8V834.02H1052.07Z" fill="#ddf4f5" opacity="1" stroke-width="4" stroke="none"></path></g><g><path d="M1352.18 550.71L1353.55 513.43 1377.04 547.12 1419.4 525.29 1395.51 564.45 1432.91 579.11 1391.52 591.48 1413.07 611.2" stroke="#ffffff" stroke-width="4" stroke-linecap="round" stroke-linejoin="round" opacity="1" fill="none"></path></g><g><path d="M283.48 447.78L258.98 399.81 258.02 460.89 186.98 423.37 240.88 505.22 165.06 510.58 220.49 534.32" stroke="#ffffff" stroke-width="4" stroke-linecap="round" stroke-linejoin="round" opacity="1" fill="none"></path></g><g><path d="M534.41 472.27C519.01 457.29 506.72 439.4 498.24 419.65 489.77 399.9 485.27 378.68 485.02 357.17 484.77 335.7 488.76 314.36 496.77 294.42 504.77 274.48 516.64 256.32 531.69 240.98 546.73 225.65 564.66 213.4 584.44 205.02 604.22 196.61 625.46 192.2 646.95 192.01 668.44 191.85 689.75 195.93 709.66 204.01 729.57 212.09 747.69 224.03 762.98 239.12 763.75 239.89 764.51 240.63 765.26 241.39L796.64 272.78 827.32 241.39C842.41 225.97 860.43 213.7 880.31 205.29 900.17 196.89 921.51 192.48 943.09 192.37 964.68 192.26 986.07 196.42 1006.04 204.64 1026 212.83 1044.14 224.93 1059.39 240.19 1074.65 255.45 1086.73 273.58 1094.95 293.55 1103.16 313.51 1107.33 334.91 1107.19 356.49 1107.08 378.07 1102.7 399.41 1094.29 419.3 1085.85 439.15 1073.58 457.18 1058.16 472.27L798.03 732.4 534.41 472.27Z" fill="#ffa0b3" opacity="1" stroke-width="4" stroke="none"></path></g><g><path d="M515.31 844.02L542.78 692.29C542.78 692.29 542.78 692.23 542.84 692.23 556.94 687.6 591.58 687.89 601.7 689.97 642.41 699.92 671.5 712.64 689.14 747.16 689.14 747.16 689.14 747.16 689.14 747.22 689.02 748.49 680.64 825.69 680.4 827.77 680.4 827.77 680.4 827.83 680.35 827.83L641.95 831.42H641.89L630.27 848.88H630.21L515.37 844.08C515.37 844.08 515.31 844.08 515.31 844.02Z" fill="#76b3dd" opacity="1" stroke-width="4" stroke="none"></path><path d="M754.31 994.2C728.4 993.33 699.95 992.92 686.48 967.89V967.83C686.82 967.19 693.24 954.7 706.77 948.11 712.27 945.45 732.91 944.7 733.95 944.7 733.95 944.7 734.01 944.7 734.01 944.76 735.05 947.82 735.63 949.67 735.74 949.96 735.74 949.96 735.74 950.02 735.8 950.02 754.65 950.54 777.9 953.31 785.94 963.09 793.17 966.38 795.42 970.84 794.32 975.23V975.29C794.67 975.58 798.89 979.62 796.58 982.28 793.57 986.33 785.07 984.42 778.3 983.61 769.23 982.28 762.58 981.42 761.07 981.24 761.01 981.24 760.96 981.3 761.01 981.36 762.69 982.23 770.61 986.74 769.8 990.84 769.4 992.98 764.02 994.2 754.31 994.2Z" fill="#e5ac95" opacity="1" stroke-width="4" stroke="none"></path><path d="M671.44 939.55C671.44 939.55 671.38 939.55 671.38 939.49 666.64 929.2 662.48 918.62 658.95 907.92 645.01 864.26 641.89 832.46 641.83 831.59 642.53 830.55 675.55 777.98 689.08 747.28 689.08 747.22 689.14 747.22 689.19 747.28 702.55 774.98 705.73 834.02 713.08 870.16 714.98 880.11 717.99 892.19 724.18 913.41V913.47C724.01 913.76 722.15 916.42 722.04 916.48 718.34 918.1 673.12 938.8 671.44 939.55Z" fill="#32ffff" opacity="1" stroke-width="4" stroke="none"></path><path d="M686.42 967.77C680.92 958.69 675.84 949.21 671.44 939.55V939.49L724.12 913.53C724.18 913.53 724.18 913.53 724.18 913.59 728.75 928.91 732.79 941.23 733.95 944.7V944.76C732.39 945.51 688.1 967.13 686.48 967.89 686.48 967.83 686.48 967.83 686.42 967.77Z" fill="#0a3232" opacity="1" stroke-width="4" stroke="none"></path><path d="M624.43 739.12C617.03 739.12 610.15 736.35 604.48 731.03 589.96 717.44 594.47 703.39 601.53 690.26 601.59 690.15 605.11 683.26 609.97 674.3 615.41 664.3 625.47 654.87 631.95 645.39 641.83 630.99 649.41 620.75 666.64 620.75 691.97 619.77 718.16 642.44 709.32 667.65 706.48 675.28 703.3 680.37 700.18 685.35 698.1 688.64 696.13 691.77 694.4 695.47 687.57 711.08 675.32 729.01 653.92 718.25H653.86C652.07 721.55 650.1 724.9 647.67 727.91 642.59 734.15 635.53 739.01 624.43 739.12Z" fill="#e5ac95" opacity="1" stroke-width="4" stroke="none"></path><path d="M628.07 679.1C616.39 679.1 610.49 674.76 610.03 674.36V674.3C615.12 664.99 622.52 651.92 629.17 642.21 639.06 627.81 648.6 615.84 665.89 615.84 682.31 615.78 698.39 625.26 706.43 640.01 711.57 649.38 712.67 659.15 709.49 667.54L709.43 667.59C708.45 667.48 691.8 665.57 681.1 654H681.04C675.49 660.42 660.8 665.63 659.82 665.97 659.76 665.97 659.76 665.97 659.76 665.92 659.47 664.82 654.73 648.28 644.03 648.28 629.63 648.45 628.24 669.73 636.11 678.35 636.17 678.41 636.11 678.47 636.05 678.47 633.22 678.87 630.56 679.1 628.07 679.1Z" fill="#a56250" stroke-linecap="round" stroke-linejoin="round" opacity="1" stroke-width="4" stroke="none"></path><path d="M708.74 1015.65C700.76 1015.65 691.39 1014.49 680.98 1012.24 658.72 1007.44 573.19 846.16 570.71 841.42 570.71 841.36 570.71 841.36 570.77 841.36L630.27 848.94C631.02 849.28 680.35 871.08 732.62 920.58 756.33 943.95 758.87 966.67 751.01 986.56 749.39 990.73 747.25 994.72 744.82 998.65 735.22 1012.53 725.39 1015.3 708.74 1015.65Z" fill="#ff3040" opacity="1" stroke-width="4" stroke="none"></path><path d="M708.74 1015.65C700.76 1015.65 691.39 1014.49 680.98 1012.24 661.32 1010.45 575.62 851.42 570.65 841.36 570.65 841.3 570.65 841.3 570.71 841.3 573.08 841.59 616.16 847.09 617.37 847.2H617.43C635.18 877.56 697.69 967.54 751.01 986.45 751.07 986.45 751.07 986.51 751.07 986.51 742.22 1007.96 730.66 1015.65 708.74 1015.65Z" fill="#f40013" opacity="0.3" stroke-width="4" stroke="none"></path><path d="M657.22 1047.92C640.39 1047.69 587.36 1034.91 547.75 1025.6 534.91 1022.59 523.64 1019.93 515.25 1018.14 515.25 1018.14 515.19 1018.14 515.19 1018.08 514.73 1016.29 492.82 937.06 492.7 936.6 489.63 930.82 487.55 924.69 486.17 918.56 485.12 904.28 483.91 893.35 487.84 880.86 488.48 878.83 489.4 876.81 490.21 874.79 496.11 860.16 506.4 846.39 520.69 835.12 520.69 835.12 520.69 835.12 520.75 835.12 522.13 835.29 590.48 843.91 591.53 844.02 613.56 858.77 701.45 937.01 706.37 978.47 714.81 1020.22 691.8 1046.47 657.22 1047.92Z" fill="#ff3040" opacity="1" stroke-width="4" stroke="none"></path><path d="M490.27 874.79C490.21 874.79 490.21 874.73 490.21 874.73 491.95 870.45 493.97 866.29 496.52 862.12 502.41 852.64 510.57 843.5 520.69 835.12 520.69 835.12 520.69 835.12 520.75 835.12L561.92 840.26C561.98 840.26 561.98 840.32 561.98 840.38 537.05 871.72 492.53 874.73 490.27 874.79Z" fill="#f40013" opacity="0.3" stroke-width="4" stroke="none"></path><path d="M487.73 918.62C487.21 918.62 486.74 918.62 486.22 918.56 486.22 918.56 486.17 918.56 486.17 918.5 483.45 906.01 484.03 893.06 487.84 880.86 487.84 880.8 487.9 880.8 487.9 880.8L512.77 886.35C512.82 886.35 512.82 886.41 512.82 886.41L509.53 901.04C507.27 911.27 498.08 918.62 487.73 918.62Z" fill="#f38f97" opacity="1" stroke-width="4" stroke="none"></path><path d="M515.19 1018.08C495.36 1013.8 492.12 1011.83 478.01 1011.31 468.35 1011.37 457.54 1013.92 446.44 1015.36 440.89 1016.23 435.05 1015.36 430.13 1012.82 430.07 1012.82 430.07 1012.76 430.13 1012.76 430.77 1011.83 440.19 998.19 444.99 993.56 463.15 976.16 498.95 946.78 500.28 945.74H500.33C504.9 950.19 512.88 956.49 525.02 961.35 525.02 961.35 525.02 961.35 525.08 961.35 525.37 961.93 531.44 974.94 528.67 991.02 526.82 1001.43 515.77 1017.33 515.19 1018.08Z" fill="#32ffff" opacity="1" stroke-width="4" stroke="none"></path><path d="M430.02 1012.76C426.55 1011.02 423.48 1008.42 421.05 1005.18V1005.13L492.64 936.66C492.64 936.66 492.7 936.66 492.76 936.66 493.05 937.18 495.36 940.88 500.28 945.62V945.68C498.37 947.47 431.69 1011.26 430.13 1012.7 430.07 1012.76 430.07 1012.76 430.02 1012.76Z" fill="#76b3dd" opacity="1" stroke-width="4" stroke="none"></path><path d="M547.69 1025.54C536.65 1022.99 525.72 1020.51 515.25 1018.08 515.19 1018.08 515.19 1018.02 515.19 1018.02 515.54 1016.17 524.62 963.55 524.97 961.41 524.97 961.35 525.02 961.35 525.02 961.35 534.68 965.23 545.5 967.65 557.12 968.58 557.18 968.58 557.18 968.64 557.18 968.64 557.06 969.33 556.02 975.69 554.63 984.02 551.91 1000.44 547.98 1024.15 547.69 1025.48 547.75 1025.54 547.69 1025.54 547.69 1025.54Z" fill="#f38f97" opacity="1" stroke-width="4" stroke="none"></path><path d="M673.87 675.46C676.7 675.52 676.7 679.68 673.87 679.74 671.04 679.68 671.04 675.52 673.87 675.46Z" fill="#231f20" opacity="1" stroke-width="4" stroke="none"></path><path d="M690.18 685.35C693.01 685.4 693.01 689.57 690.18 689.63 687.34 689.57 687.34 685.4 690.18 685.35Z" fill="#231f20" opacity="1" stroke-width="4" stroke="none"></path><path d="M653.4 816.73C652.07 816.73 650.85 816.44 649.87 815.86L626.74 802.97C625.47 802.27 624.72 801.23 624.6 800.02 624.49 798.74 625.06 797.36 626.28 796.32L667.39 759.48C669.59 757.4 673.93 756.7 676.65 758.27L699.78 771.16C702.55 772.66 702.61 775.84 700.24 777.81L659.12 814.65C657.68 815.98 655.54 816.73 653.4 816.73Z" fill="#20231f" opacity="1" stroke-width="4" stroke="none"></path><path d="M688.96 780.3C684.97 780.3 685.32 775.96 688.85 774.51 690.41 773.71 693.13 773.76 693.88 775.38 694.98 777.52 691.51 780.47 688.96 780.3Z" fill="#000000" opacity="1" stroke-width="4" stroke="none"></path><path d="M683.18 783.65C681.56 783.65 681.73 781.92 683.12 781.28 683.76 780.93 684.86 780.99 685.15 781.63 685.61 782.55 684.16 783.71 683.18 783.65Z" fill="#000000" opacity="1" stroke-width="4" stroke="none"></path><path d="M590.77 784.29C609.57 781.4 629.69 778.74 644.2 779.03 645.07 779.03 645.82 779.43 645.42 780.24 643.63 783.77 634.61 789.2 634.61 789.2 633.68 789.61 633.85 790.88 634.72 791.46 637.03 792.96 641.83 795.33 649.7 795.74 655.31 796.14 676.59 796.14 679.77 795.91 679.77 795.91 679.77 795.91 679.83 795.91 684.91 800.25 679.88 805.16 676.01 807.3 675.95 807.36 675.89 807.36 675.84 807.42 676.88 809.79 676.93 811.99 676.01 813.89 674.22 817.54 669.19 818.98 668.67 819.16 668.61 819.16 668.61 819.21 668.67 819.21 672.71 827.19 661.96 830.03 659.24 830.26 659.24 830.26 659.18 830.26 659.18 830.32 658.78 835.87 648.66 835.93 642.59 836.1 628.01 836.1 608.76 832.57 608.47 832.51 608.35 832.57 605.35 833.96 600.31 836.22H600.26C599.62 835.64 587.59 824.07 584.88 810.71 582.56 799.55 589.79 786.31 590.77 784.29Z" fill="#e5ac95" opacity="1" stroke-width="4" stroke="none"></path><path d="M504.79 862.58C449.39 862.35 459.51 808.81 481.83 763.24 481.89 763.18 497.04 752.25 497.96 751.62 497.96 751.62 498.02 751.56 497.96 751.56 497.56 750.92 492.76 742.65 498.31 734.15 507.97 719.29 517.85 707.49 524.62 702.23 530.06 698.07 536.13 694.83 542.6 692.52H542.66C550.41 706.11 550.41 729.76 547.69 751.27 545.44 769.31 541.22 785.79 538.21 793.6 538.21 793.66 538.21 793.66 538.27 793.66 539.25 793.42 546.94 791.86 557.81 789.9 557.81 789.9 557.87 789.9 557.87 789.95L569.49 813.37 568.63 848.88C568.63 848.88 568.63 848.94 568.57 848.94 543.01 858.02 521.56 862.58 504.79 862.58Z" fill="#32ffff" opacity="1" stroke-width="4" stroke="none"></path><path d="M557.93 789.95C570.19 787.7 580.88 785.85 590.72 784.29 590.77 784.29 590.77 784.29 590.77 784.35L600.26 836.22C600.26 836.22 600.26 836.27 600.2 836.27 592.97 839.57 581.64 844.37 568.68 848.99 568.63 848.99 568.63 848.99 568.63 848.94 568.22 846.86 558.27 791.98 557.87 790.01 557.87 789.95 557.87 789.95 557.93 789.95Z" fill="#0a3232" opacity="1" stroke-width="4" stroke="none"></path><path d="M488.42 764.4C486.17 764.4 483.97 764.05 481.89 763.3 481.83 763.3 481.83 763.24 481.83 763.24 486.74 753.23 492.24 743.46 498.25 734.21 498.25 734.21 498.31 734.15 498.31 734.21L512.77 743.06C512.77 743.06 512.82 743.11 512.77 743.11 506.46 753.18 502.47 764.22 488.42 764.4Z" fill="#76b3dd" opacity="1" stroke-width="4" stroke="none"></path><path d="M557.29 968.64L625.58 974.59C625.64 974.59 625.64 974.71 625.58 974.71L554.75 984.02C554.69 984.02 554.69 984.02 554.69 983.96L557.23 968.7C557.23 968.64 557.23 968.64 557.29 968.64Z" fill="#f40013" opacity="0.3" stroke-width="4" stroke="none"></path><path d="M547.63 751.56C545.61 766.01 542.78 781.22 538.15 793.66 538.15 793.66 538.15 793.71 538.09 793.71L517.16 798.05C517.1 798.05 517.04 797.99 517.1 797.93L547.52 751.5C547.58 751.5 547.69 751.5 547.63 751.56Z" fill="#0a3232" opacity="0.3" stroke-width="4" stroke="none"></path><path d="M640.56 703.1C646.58 713.74 653.23 717.79 653.86 718.13 653.86 718.13 653.92 718.19 653.86 718.19 653.11 719.58 650.39 724.67 647.73 727.79 647.67 727.85 647.67 727.79 647.62 727.79 647.15 726.23 641.43 706.45 640.45 703.1 640.45 703.04 640.56 703.04 640.56 703.1Z" fill="#a1634a" opacity="0.3" stroke-width="4" stroke="none"></path><path d="M786 963.03C776.57 959.67 754.19 957.25 754.19 957.25" stroke="#000000" stroke-width="4" stroke-linecap="round" stroke-linejoin="round" opacity="1" fill="none"></path><path d="M794.38 975.17C784.95 971.82 771.65 968.98 755 967.89" stroke="#000000" stroke-width="4" stroke-linecap="round" stroke-linejoin="round" opacity="1" fill="none"></path><path d="M671.67 700.09C671.44 697.84 670.05 695.87 667.97 694.95" stroke="#000000" stroke-width="4" stroke-linecap="round" stroke-linejoin="round" opacity="1" fill="none"></path><path d="M680.35 688.06L678.55 691.07" stroke="#000000" stroke-width="4" stroke-linecap="round" stroke-linejoin="round" opacity="1" fill="none"></path><path d="M653.86 718.19C645.07 712.41 640.56 702.93 640.56 702.93" stroke="#000000" stroke-width="4" stroke-linecap="round" stroke-linejoin="round" opacity="1" fill="none"></path><path d="M643.63 662.91L646.98 669.04" stroke="#000000" stroke-width="4" stroke-linecap="round" stroke-linejoin="round" opacity="1" fill="none"></path><path d="M557.23 968.7C581.69 971.47 625.82 974.65 625.82 974.65" stroke="#632b2f" stroke-width="4" stroke-linecap="round" stroke-linejoin="round" opacity="1" fill="none"></path><path d="M616.39 737.91L599.74 782.38" stroke="#1c1c1c" stroke-width="4" stroke-linecap="round" stroke-linejoin="round" opacity="1" fill="none"></path><path d="M631.48 877.62C661.44 906.47 699.78 945.22 706.95 978.41 710.01 992.52 709.14 1004.66 705.56 1014.67" stroke="#632b2f" stroke-width="4" stroke-linecap="round" stroke-linejoin="round" opacity="1" fill="none"></path><path d="M486.63 1011.95L489.17 996.86" stroke="#0a3232" stroke-width="4" stroke-linecap="round" stroke-linejoin="round" opacity="1" fill="none"></path><path d="M475.58 1011.2L475.81 996.34" stroke="#0a3232" stroke-width="4" stroke-linecap="round" stroke-linejoin="round" opacity="1" fill="none"></path><path d="M538.27 793.71C526.59 796.49 517.22 798.05 517.22 798.05" stroke="#0a3232" stroke-width="4" stroke-linecap="round" stroke-linejoin="round" opacity="1" fill="none"></path><path d="M675.83 807.4C669.19 810.71 660.86 809.62 660.86 809.62" stroke="#000000" stroke-width="4" stroke-linecap="round" stroke-linejoin="round" opacity="1" fill="none"></path><path d="M659.62 830.2C652.53 831.3 648.66 830.14 648.66 830.14" stroke="#000000" stroke-width="4" stroke-linecap="round" stroke-linejoin="round" opacity="1" fill="none"></path><path d="M669.1 819.02C661.96 821.3 654.73 820.2 654.73 820.2" stroke="#000000" stroke-width="4" stroke-linecap="round" stroke-linejoin="round" opacity="1" fill="none"></path><path d="M585.28 770.18L563.59 763.47" stroke="#1c1c1c" stroke-width="4" stroke-linecap="round" stroke-linejoin="round" opacity="1" fill="none"></path></g><g><path d="M925.59 760.76C921.35 760.76 920 755.72 919.73 754.46 919.73 754.37 919.64 754.37 919.64 754.37 905.4 757.25 911.17 720.21 911.53 716.69 911.53 716.6 911.44 716.6 911.44 716.6 910.63 716.97 909.45 717.33 908.19 717.33 902.15 716.78 902.42 710.48 903.51 702.64 904.59 697.68 906.57 685.6 911.53 668.66 911.53 668.57 911.53 668.48 911.62 668.48 912.16 668.57 930.09 670.1 930.45 670.1 930.9 670.28 962.54 681.91 963.89 682.81V682.9C959.47 700.65 958.03 715.34 956.95 725.89 955.51 736.97 955.69 746.07 949.92 747.25 947.31 747.25 945.23 743.37 944.42 741.48 944.42 741.39 944.24 741.39 944.24 741.48 942.26 756.89 936.58 759.14 933.25 759.14 931.98 759.14 930.99 758.78 930.63 758.6H930.54C928.74 760.13 927.03 760.76 925.59 760.76Z" fill="#cf5934" opacity="1" stroke-width="4" stroke="none"></path><path d="M911.71 716.24C917.11 710.84 920.72 700.02 920.72 700.02 920.81 699.84 930.63 693.71 933.34 681.1" stroke="#030202" stroke-width="4" stroke-linecap="round" stroke-linejoin="round" opacity="1" fill="none"></path><path d="M919.82 754.09C922.52 741.48 926.13 714.44 926.13 714.44" stroke="#030202" stroke-width="4" stroke-linecap="round" stroke-linejoin="round" opacity="1" fill="none"></path><path d="M930.63 758.6C934.24 745.98 936.04 734.27 938.74 716.24" stroke="#000000" stroke-width="4" stroke-linecap="round" stroke-linejoin="round" opacity="1" fill="none"></path><path d="M944.15 740.58C945.05 736.07 946.85 721.65 947.76 715.34" stroke="#000000" stroke-width="4" stroke-linecap="round" stroke-linejoin="round" opacity="1" fill="none"></path><path d="M944.51 990.84C944.42 990.57 922.07 949.84 921.98 949.66 923.42 942.18 924.05 931.9 924.14 918.11 923.78 917.57 998.4 918.11 998.4 917.93 998.22 923.34 997.86 928.75 997.41 934.34 996.06 948.58 994.53 962.27 992.1 975.07L944.51 990.84Z" fill="#cf5934" opacity="1" stroke-width="4" stroke="none"></path><path d="M1069.6 985.43C1069.6 985.25 1042.2 949.93 1042.38 949.66 1041.21 939.56 1039.59 929.56 1037.34 919.65 1037.79 918.48 1066.81 856.56 1066.72 856.47 1066.72 856.47 1111.23 918.57 1112.14 919.83 1113.76 938.39 1113.58 956.51 1112.32 975.07L1111.41 977.77 1069.6 985.43Z" fill="#cf5934" opacity="1" stroke-width="4" stroke="none"></path><path d="M1019.94 662.35C1008.86 662.35 999.85 653.34 999.85 642.25V528.88C999.85 517.8 1008.86 508.79 1019.94 508.79H1070.41C1079.87 508.79 1088.16 515.55 1090.06 524.83L1113.4 638.29C1115.65 649.1 1108.62 659.74 1097.81 661.99 1096.45 662.26 1095.1 662.44 1093.75 662.44L1019.94 662.35Z" fill="#20231f" opacity="1" stroke-width="4" stroke="none"></path><path d="M1107.27 883.87C1101.41 854.4 1096 838.09 1091.68 825.02 1085.82 807.27 1082.22 796.54 1082.76 768.6 1082.85 760.94 1083.21 753.01 1083.48 744.63 1085.1 699.48 1087.08 648.2 1066.35 612.52 1066.35 612.52 1066.35 612.42 1066.26 612.42 1064.82 612.52 1032.2 612.33 1012.55 612.33 990.83 612.33 959.02 612.42 957.49 612.52 957.49 612.52 957.4 612.52 957.4 612.61 952.53 625.4 947.85 641.44 943.52 659.38 942.17 664.97 940.91 670.73 939.55 676.59 926.76 736.43 918.38 812.49 923.15 869.63 923.78 887.11 924.23 903.33 924.05 918.2 924.05 918.29 924.05 918.29 924.14 918.29 926.85 918.29 995.61 918.29 998.22 918.29 998.31 918.29 998.31 918.29 998.31 918.2 999.21 894.41 996.87 876.12 994.89 860.08 992.73 843.31 990.92 828.71 993.54 812.76 996.51 798.79 1000.21 784.11 1004.26 768.96 1004.26 769.05 1004.26 769.05 1004.26 769.14 1006.42 788.16 1009.4 806.45 1013.45 823.04 1020.93 854.85 1030.85 890.81 1037.16 919.56L1037.25 919.65 1068.34 919.74C1068.43 919.74 1068.43 919.74 1068.43 919.65 1068.52 917.66 1070.14 878.01 1070.32 874.05 1070.32 873.96 1070.41 873.96 1070.5 874.05 1081.13 892.52 1090.24 919.11 1090.96 920.19 1090.96 920.19 1090.96 920.19 1091.05 920.19L1111.96 919.74C1112.05 919.74 1112.05 919.65 1112.05 919.65 1111.14 907.75 1109.61 895.58 1107.27 883.87Z" fill="#ff3040" opacity="1" stroke-width="4" stroke="none"></path><path d="M983.62 465.62V460.21C983.62 460.03 983.44 459.94 983.26 459.94 962.17 468.41 949.29 454.71 950.73 437.68L951.18 431.82C951.18 431.73 951.18 431.64 951 431.55 949.92 431.01 945.77 428.31 945.77 425.06 945.77 421.82 950.01 419.93 951.09 419.57 951.18 419.57 951.27 419.48 951.27 419.3 950.01 386.49 969.02 370.45 1000.39 371.8 1008.68 372.25 1035.8 376.4 1035.8 413.44L1036.25 465.53C1036.25 465.71 1036.16 465.8 1035.98 465.8 1035.71 465.62 983.62 466.16 983.62 465.62Z" fill="#cf5934" opacity="1" stroke-width="4" stroke="none"></path><path d="M999.76 452.91L984.34 469.76C984.07 470.03 983.62 469.85 983.62 469.49V460.12C983.62 459.94 983.71 459.76 983.89 459.76 985.43 459.22 990.92 456.7 999.21 452.28 999.67 452.01 1000.03 452.55 999.76 452.91Z" fill="#030202" opacity="0.2" stroke-width="4" stroke="none"></path><path d="M879.62 999.04C879.53 999.04 879.53 998.95 879.53 998.86 887.83 984.44 908.82 976.15 917.93 961.28 919.64 958.67 920.99 954.7 921.98 949.66 921.62 949.21 940.46 949.57 941.9 949.48H942.17C949.02 949.39 954.6 956.24 953.07 962.9 953.07 962.9 951.18 972.37 950.82 974.26 950.82 974.44 950.91 974.62 951.09 974.62 954.88 974.71 988.31 974.35 991.91 974.71 992.1 974.71 992.19 974.89 992.19 975.07 990.74 983.18 987.68 997.24 987.23 999.22 987.23 999.22 987.23 999.31 987.14 999.31 985.7 999.31 940.37 1004.63 939.46 1004.72 938.29 1004.63 882.15 998.95 879.62 999.04Z" fill="#385b2c" opacity="1" stroke-width="4" stroke="none"></path><path d="M1010.03 999.4C1010.03 999.4 1018.32 990.75 1026.07 985.25 1030.22 982.37 1034 978.41 1037.97 975.43 1044.37 970.56 1042.38 949.57 1042.38 949.57H1062.66C1063.38 949.57 1064.1 949.66 1064.82 949.75 1070.95 950.92 1074.92 956.96 1073.74 963.08L1071.49 974.26C1071.4 974.53 1071.67 974.89 1071.94 974.89 1076.99 974.98 1112.59 974.53 1112.23 975.07 1111.6 983.45 1110.69 991.83 1109.52 999.58 1109.43 1000.49 1068.34 1014.27 1010.03 999.4Z" fill="#385b2c" opacity="1" stroke-width="4" stroke="none"></path><path d="M993.45 812.22C996.42 799.16 1000.21 784.47 1004.35 769.14 1001.38 743.28 999.85 715.97 999.03 689.12 999.03 689.03 998.94 689.03 998.85 689.03 977.59 708.22 992 803.57 993.36 812.22 993.27 812.31 993.45 812.31 993.45 812.22Z" fill="#210003" opacity="0.2" stroke-width="4" stroke="none"></path><path d="M1088.43 489.86C1068.43 472.56 1039.32 471.03 1036.34 470.94L1036.25 470.85V465.53H983.62V471.12C983.62 471.57 983.35 472.02 982.9 472.2 979.84 473.73 967.58 479.86 962.08 484.54 942.44 500.86 938.38 548.44 933.88 574.21 930 603.32 919.1 636.04 911.53 668.48 911.53 668.48 911.53 668.57 911.62 668.57 912.79 668.84 926.58 672.9 939.73 676.5 941 670.55 942.35 664.88 943.7 659.29 947.94 641.8 952.53 626.3 957.22 613.69 955.69 618.19 954.06 622.7 952.44 628.11 952.26 627.84 1067.62 627.84 1073.56 627.84 1073.65 627.84 1073.74 627.75 1073.74 627.66 1073.47 626.84 1073.11 625.94 1072.75 624.95 1072.75 624.77 1072.84 624.68 1073.02 624.77 1081.22 628.2 1090.6 630.9 1099.43 630.36 1116.1 630.36 1136.65 624.14 1139.98 594.67 1144.49 559.61 1106.82 506.71 1088.43 489.86Z" fill="#32ffff" opacity="1" stroke-width="4" stroke="none"></path><path d="M998.94 688.94C999.85 712.64 1001.38 743.37 1004.35 768.87" stroke="#210003" stroke-width="4" stroke-linecap="round" stroke-linejoin="round" opacity="1" fill="none"></path><path d="M1013.36 442.1C1013.72 441.2 1023.1 431.46 1022.83 421.91 1022.74 418.58 1021.29 415.69 1018.77 413.35 1010.48 404.79 993.27 419.03 992 420.56 992 420.56 992 420.56 991.91 420.56 990.92 420.29 977.59 413.89 977.32 397.31 977.32 397.22 977.23 397.22 977.23 397.22 970.11 399.74 963.89 401 958.84 401 954.88 400.91 953.34 400.37 953.25 400.1 953.25 400.1 953.25 400.1 953.25 400.01 957.13 377.57 972.72 366.21 996.78 366.12 1044.09 367.75 1035.98 406.59 1036.25 449.94 1036.25 450.03 1036.25 450.03 1036.16 450.03 1034.9 449.94 1019.67 449.22 1013.36 442.1Z" fill="#231f20" opacity="1" stroke-width="4" stroke="none"></path><path d="M951.36 562.68C950.64 568.45 949.92 573.76 949.29 578.45 945.95 604.49 957.49 612.52 957.49 612.52L954.97 619.63 952.26 628.11" stroke="#000000" stroke-width="4" stroke-linecap="round" stroke-linejoin="round" opacity="1" fill="none"></path><path d="M957.67 612.61H1048.24" stroke="#000000" stroke-width="4" stroke-linecap="round" stroke-linejoin="round" opacity="1" fill="none"></path><path d="M968.21 627.93L972.18 612.61" stroke="#000000" stroke-width="4" stroke-linecap="round" stroke-linejoin="round" opacity="1" fill="none"></path><path d="M984.25 627.93L987.41 612.61" stroke="#000000" stroke-width="4" stroke-linecap="round" stroke-linejoin="round" opacity="1" fill="none"></path><path d="M1001.02 627.93L1002.73 612.61" stroke="#000000" stroke-width="4" stroke-linecap="round" stroke-linejoin="round" opacity="1" fill="none"></path><path d="M1016.34 627.93L1018.05 612.61" stroke="#000000" stroke-width="4" stroke-linecap="round" stroke-linejoin="round" opacity="1" fill="none"></path><path d="M1032.56 627.93L1033.37 612.61" stroke="#000000" stroke-width="4" stroke-linecap="round" stroke-linejoin="round" opacity="1" fill="none"></path><path d="M1049.77 627.84L1048.24 612.61" stroke="#000000" stroke-width="4" stroke-linecap="round" stroke-linejoin="round" opacity="1" fill="none"></path><path d="M1077.53 640.72C1052.12 636.22 1003.27 611.07 998.94 566.64 991.82 526.99 1018.32 484.54 1036.25 470.94 1043.01 470.76 1049.05 471.39 1058.51 474.63 1057.52 475.98 1018.23 514.91 1022.74 560.34 1025.53 600.35 1050.58 611.97 1072.48 624.68 1077.98 633.6 1077.71 640.45 1077.71 640.54V640.72H1077.53Z" fill="#20231f" opacity="1" stroke-width="4" stroke="none"></path><path d="M1041.75 604.4L1028.14 594.22C1026.43 593.86 1016.7 592.78 999.85 579.35 997.05 577.1 991.91 576.11 986.96 575.02 980.65 573.76 974.7 572.5 974.7 568.99 974.7 567 979.21 565.92 988.22 565.92 990.65 565.92 993.09 566.01 994.98 566.1 995.52 566.1 995.61 565.47 995.16 565.29 985.97 561.51 966.86 554.48 972.81 543.66 972.9 543.48 972.9 543.3 972.81 543.12 970.38 540.15 971.46 533.03 977.41 533.39 978.31 533.39 978.94 533.48 979.48 533.57 979.75 533.57 979.93 533.48 980.02 533.21 980.65 530.23 984.62 528.88 988.76 529.42 995.97 530.14 1012.55 535.82 1017.42 537.53 1017.78 537.62 1018.14 537.26 1017.96 536.99 1010.12 514.01 1042.56 545.56 1048.15 551.86L1067.08 563.76C1067.26 563.85 1067.35 564.12 1067.26 564.39L1042.29 604.85 1041.75 604.4Z" fill="#cf5934" opacity="1" stroke-width="4" stroke="none"></path><path d="M1040.76 973.18L1049.59 979.4" stroke="#1c1c1c" stroke-width="4" stroke-linecap="round" stroke-linejoin="round" opacity="1" fill="none"></path><path d="M1033.46 979.94L1038.78 985.43" stroke="#1c1c1c" stroke-width="4" stroke-linecap="round" stroke-linejoin="round" opacity="1" fill="none"></path><path d="M907.2 973.27L917.11 979.4" stroke="#1c1c1c" stroke-width="4" stroke-linecap="round" stroke-linejoin="round" opacity="1" fill="none"></path><path d="M900.62 979.22L906.3 985.43" stroke="#1c1c1c" stroke-width="4" stroke-linecap="round" stroke-linejoin="round" opacity="1" fill="none"></path><path d="M979.75 533.48C989.75 536.45 1019.76 547.9 1019.76 547.9" stroke="#030202" stroke-width="4" stroke-linecap="round" stroke-linejoin="round" opacity="1" fill="none"></path><path d="M972.9 543.39L1013.54 557.63" stroke="#030202" stroke-width="4" stroke-linecap="round" stroke-linejoin="round" opacity="1" fill="none"></path><path d="M1017.87 537.44L1026.25 540.87" stroke="#030202" stroke-width="4" stroke-linecap="round" stroke-linejoin="round" opacity="1" fill="none"></path><path d="M1003.63 432.36L1009.04 426.96" stroke="#030202" stroke-width="4" stroke-linecap="round" stroke-linejoin="round" opacity="1" fill="none"></path><path d="M960.46 439.57C964.25 440.11 967.22 437.14 967.49 435.61" stroke="#030202" stroke-width="4" stroke-linecap="round" stroke-linejoin="round" opacity="1" fill="none"></path><path d="M963.08 416.41C966.14 416.41 966.14 421.1 963.08 421.1 960.01 421.1 960.01 416.41 963.08 416.41Z" fill="#231f20" opacity="1" stroke-width="4" stroke="none"></path><path d="M1067.08 563.76L1102.31 582.96" stroke="#000000" stroke-width="4" stroke-linecap="round" stroke-linejoin="round" opacity="1" fill="none"></path><path d="M1066.17 536.09L1078.7 569.62" stroke="#000000" stroke-width="4" stroke-linecap="round" stroke-linejoin="round" opacity="1" fill="none"></path><path d="M1071.4 974.8L1065.27 999.22" stroke="#1c1c1c" stroke-width="4" stroke-linecap="round" stroke-linejoin="round" opacity="1" fill="none"></path><path d="M950.46 974.89L944.87 999.22" stroke="#1c1c1c" stroke-width="4" stroke-linecap="round" stroke-linejoin="round" opacity="1" fill="none"></path><path d="M1067.62 564.12L1067.08 563.76 1055.09 556.19C1054.73 555.92 1054.55 555.47 1054.73 555.11 1055.45 552.95 1057.79 546.01 1058.96 541.23 1059.51 538.26 1062.66 535.91 1065.09 535.46 1065.54 535.37 1065.99 535.64 1066.17 536.09 1067.71 540.15 1075.37 560.61 1077.89 567.45 1078.16 568.27 1077.35 568.99 1076.63 568.63 1073.38 567 1067.62 564.12 1067.62 564.12Z" fill="#000000" opacity="0.2" stroke-width="4" stroke="none"></path><path d="M983.62 459.85C987.32 458.23 999.21 452.28 999.21 452.28" stroke="#030202" stroke-width="4" stroke-linecap="round" stroke-linejoin="round" opacity="1" fill="none"></path><path d="M948.48 584.13C948.48 584.04 948.39 584.04 948.3 584.04 942.35 588.18 937.93 602.33 942.8 649.1 943.16 652.62 943.34 655.86 943.43 658.75 943.43 658.84 943.61 658.84 943.61 658.75 947.94 641.08 952.53 625.4 957.31 612.79V612.7C956.05 611.43 947.4 602.78 948.48 584.13Z" fill="#000000" opacity="0.2" stroke-width="4" stroke="none"></path><path d="M875.48 1012.83C875.48 1007.97 876.74 1002.92 879.53 998.95H879.62C882.15 998.95 984.25 999.4 987.14 999.4 987.14 999.4 987.23 999.4 987.14 999.49 986.87 1000.39 983.26 1012.11 982.81 1012.92 982.81 1012.92 982.81 1012.92 982.72 1012.92 980.29 1012.83 878.72 1012.92 875.48 1012.83 875.48 1012.92 875.48 1012.92 875.48 1012.83Z" fill="#1c1c1c" opacity="1" stroke-width="4" stroke="none"></path><path d="M1010.03 999.4C1010.12 999.4 1105.92 999.49 1109.52 999.49 1109.61 999.49 1109.61 999.58 1109.61 999.58 1109.43 1000.85 1107.36 1011.84 1107.18 1012.74 1107.18 1012.83 1107.09 1012.92 1106.91 1012.92H1004.62C1004.17 1012.92 1003.9 1012.56 1003.99 1012.11 1004.62 1009.86 1003.72 1004.18 1010.03 999.4Z" fill="#1c1c1c" opacity="1" stroke-width="4" stroke="none"></path><path d="M1042.29 604.85C1042.29 604.85 1070.14 629.01 1093.93 630.27" stroke="#000000" stroke-width="4" stroke-linecap="round" stroke-linejoin="round" opacity="1" fill="none"></path></g></svg>