<svg xmlns="http://www.w3.org/2000/svg" height="1200" width="1600" version="1.1" xmlns:xlink="http://www.w3.org/1999/xlink" xmlns:svgjs="http://svgjs.com/svgjs"><rect fill="#f3e9ea" width="1600" height="1200"></rect><g><path d="M1077.17 794.24L1073.66 845.72 1089.19 846.78 1092.7 795.29 1077.17 794.24Z" fill="#000000" opacity="1" stroke-width="4" stroke="none"></path><path d="M1051.56 956.14L1059.67 837.13C1060.16 829.43 1066.88 823.62 1074.58 824.11H1074.66L1092.76 825.42C1100.62 825.99 1106.52 832.79 1105.95 840.73 1105.78 842.54 1105.29 844.34 1104.55 845.98L1089.97 875.62C1085.47 884.8 1083.5 895.04 1084.32 905.19L1088.5 956.14H1051.56V956.14Z" fill="#5b2c31" opacity="1" stroke-width="4" stroke="none"></path><path d="M1203.82 435.31V435.23C1204.47 422.37 1206.03 391.17 1206.19 379.54 1206.44 353.9 1192.93 337.52 1169.91 335.72 1167.62 335.56 1165.41 335.47 1163.28 335.47 1146 335.47 1133.96 341.21 1126.42 353 1122 359.88 1121.1 368.89 1120.03 378.39 1119.54 382.73 1119.05 387.24 1118.23 391.91L1117.98 393.05C1116.18 403.13 1114.3 413.45 1120.03 421.8 1124.7 428.6 1133.96 430.07 1141 430.07 1143.95 430.07 1146.9 429.83 1149.76 429.34L1150.17 440.47 1142.06 474.05 1203.82 435.31Z" fill="#eaa58b" opacity="1" stroke-width="4" stroke="none"></path><path d="M1177.45 418.85C1177.45 418.85 1200.63 403.29 1194.89 391 1189.16 378.72 1170.32 386.09 1170.32 386.09 1170.32 386.09 1162.95 382.81 1164.59 368.07 1164.59 368.07 1143.29 381.18 1140.84 358.24 1140.84 358.24 1112.17 368.89 1108.07 343.5 1103.73 316.72 1133.46 305.01 1151.48 320.57 1151.48 320.57 1158.85 305.01 1176.05 308.28 1191.45 311.23 1194.07 326.3 1194.07 326.3 1194.07 326.3 1211.35 320.65 1218.64 330.4 1226.02 340.22 1219.46 352.51 1219.46 352.51 1219.46 352.51 1235.68 358.33 1233.39 375.44 1232.49 382.65 1228.64 389.2 1222.74 393.46 1222.74 393.46 1237.48 402.47 1226.83 416.39 1226.83 416.39 1233.39 431.96 1217.01 439.33 1200.87 446.62 1184.82 432.78 1177.45 418.85Z" fill="#30242a" opacity="1" stroke-width="4" stroke="none"></path><path d="M1377.45 272.98C1377.37 272.33 1377.13 270.61 1374.42 270.61 1371.8 270.61 1367.46 272.16 1361.48 275.28 1361.48 275.28 1361.48 275.28 1361.56 275.19 1366.07 270.85 1377.95 259.39 1376.63 252.83 1376.31 251.2 1375.08 249.8 1373.52 249.23 1375.08 246.86 1375.32 244.32 1374.26 242.27 1373.11 240.14 1370.74 238.91 1367.54 238.91 1367.05 238.91 1366.56 238.91 1366.07 238.99 1364.68 236.78 1362.22 235.47 1359.6 235.55 1352.15 235.55 1341.25 243.58 1332.57 250.13 1328.8 252.92 1325.45 255.37 1322.74 257.01 1323.56 254.06 1327.33 240.22 1324.38 236.37 1323.89 235.72 1323.15 235.31 1322.25 235.31 1322.09 235.31 1321.92 235.31 1321.84 235.31 1316.19 236.21 1306.94 253.9 1298.74 270.36 1294.73 278.31 1286.87 298.62 1279.25 318.27L1276.47 324.91 1276.63 325.48 1326.43 343.99 1327.08 343.58C1329.95 332.77 1332.65 320.81 1335.03 308.2 1337.32 306.64 1378.35 279.37 1377.45 272.98Z" fill="#eaa58b" opacity="1" stroke-width="4" stroke="none"></path><path d="M1250.83 981.2C1251.16 980.05 1252.31 975.55 1253.7 968.67 1253.7 968.5 1253.62 968.34 1253.53 968.26L1245.02 963.75C1244.93 963.75 1244.85 963.67 1244.85 963.67L1155.99 967.44C1155.91 967.44 1155.82 967.44 1155.74 967.52L1154.6 968.34C1154.51 968.42 1154.51 968.42 1154.43 968.5 1152.88 972.52 1152.14 976.61 1152.14 980.95 1152.14 981.2 1152.3 981.36 1152.55 981.36L1250.42 981.44C1250.67 981.44 1250.75 981.36 1250.83 981.2Z" fill="#000000" opacity="1" stroke-width="4" stroke="none"></path><path d="M1097.75 981.61C1097.84 981.44 1099.88 976.78 1102.83 968.5L1102.59 968.18 997.75 966.95 996.2 968.09 996.11 968.18C994.39 972.35 993.41 977.02 993.49 981.53V981.69L1097.75 981.61Z" fill="#000000" opacity="1" stroke-width="4" stroke="none"></path><path d="M1253.78 968.34C1255.42 960.39 1256.81 952.2 1257.88 943.93L1257.55 943.36 1226.59 943.6 1230.27 926.73C1231.26 922.39 1228.47 918.13 1224.13 917.15 1223.56 916.99 1222.98 916.99 1222.41 916.99L1194.24 916.74 1193.58 917.31C1193.5 924.52 1191.94 929.93 1188.99 933.86 1182.44 942.7 1175.48 947.86 1169.42 952.45 1163.03 957.2 1157.46 961.3 1154.51 968.26L1154.43 968.5 1253.78 968.34Z" fill="#ff9f61" opacity="1" stroke-width="4" stroke="none"></path><path d="M1102.83 968.5C1105.62 960.72 1108.24 952.29 1110.53 943.85L1072.28 943.6 1075.97 926.73C1076.95 922.39 1074.17 918.13 1069.83 917.15 1069.25 916.99 1068.68 916.99 1068.11 916.99H1037.8V917.15C1036.16 924.68 1034.12 930.01 1031.25 933.86 1024.62 942.7 1017.57 947.86 1011.27 952.45 1004.71 957.2 999.96 959.41 996.93 966.29L996.11 968.09C996.03 968.26 996.2 968.5 996.36 968.5H1102.83Z" fill="#ff9f61" opacity="1" stroke-width="4" stroke="none"></path><path d="M1257.88 943.93C1258.86 936.15 1261.23 916.17 1261.23 900.03 1261.23 894.3 1261.15 889.22 1260.91 884.06V883.98L1216.76 806.66 1188.91 884.06C1192.35 899.54 1193.75 909.45 1193.58 917.31L1222.33 917.4C1226.51 917.4 1229.95 920.84 1229.95 925.01 1229.95 925.59 1229.86 926.16 1229.78 926.65L1225.93 944.01 1257.88 943.93Z" fill="#eaa58b" opacity="1" stroke-width="4" stroke="none"></path><path d="M1255.83 845.4L1255.25 842.29C1253.78 834.18 1252.22 826.89 1250.83 819.77 1247.97 805.93 1245.34 792.82 1242.97 775.79 1239.69 752.36 1241.33 728.12 1242.81 704.69 1245.51 663.33 1248.13 620.66 1224.21 581.67 1223.56 580.61 1222.98 579.46 1222.25 578.4L1222.17 578.32H1122.65L1122.57 578.4C1122.49 578.48 1122 579.63 1121.02 581.59 1114.14 595.68 1086.12 654.08 1067.53 706.5L1093.91 739.91 1142.8 737.37C1143.78 735.65 1144.77 733.93 1145.75 732.21 1149.11 726.4 1152.47 720.58 1155.58 714.77 1156.97 728.85 1158.36 741.71 1159.84 752.93 1163.36 777.67 1168.44 802.16 1174.99 826.32 1176.46 831.89 1177.86 837.13 1179.08 842.37 1180.72 849.5 1182.36 856.13 1183.92 862.6 1185.72 870.14 1188.91 883.98 1188.91 883.98H1260.74C1260.82 883.98 1260.91 883.9 1260.91 883.82 1260.66 881.6 1257.96 856.46 1255.83 845.4Z" fill="#ff9f61" opacity="1" stroke-width="4" stroke="none"></path><path d="M1144.19 670.46L1120.93 744.01 1142.8 737.37C1143.78 735.65 1144.77 733.93 1145.75 732.21 1149.11 726.4 1152.47 720.58 1155.58 714.77L1152.63 671.28C1152.47 669.07 1150.01 667.43 1147.8 667.67 1146.08 667.76 1144.69 668.82 1144.19 670.46Z" fill="#261b14" opacity="0.3" stroke-width="4" stroke="none"></path><path d="M1070.15 609.19C1093.99 587.33 1112.66 562.35 1115.69 558.09 1113.81 573.08 1116.84 578.24 1121.02 581.59L1224.21 581.67C1236.33 570.29 1235.52 557.43 1235.35 542.53 1235.19 529.18 1235.02 514.02 1243.71 496.66 1252.14 479.71 1261.89 463.49 1272.95 448.17 1275.16 445.14 1277.29 442.11 1279.33 439.25 1281.95 435.64 1284.41 432.2 1286.87 428.76 1287.85 427.29 1289.08 425.73 1290.23 424.09 1299.73 411.23 1314.22 391.91 1327 343.83L1327.08 343.58 1276.47 324.91 1276.39 325.07C1269.26 343.42 1261.97 361.85 1258.94 367.01 1256.32 371.51 1243.62 387.89 1227.9 404.27 1192.43 441.05 1171.06 448.83 1159.35 448.83 1158.77 448.83 1158.2 448.83 1157.63 448.75 1153.45 448.5 1150.17 444.98 1150.17 440.72V440.47L1149.93 440.56C1132.56 444.24 1124.46 450.63 1116.43 460.46 1112.5 465.37 1106.76 474.3 1099.64 485.68 1092.35 497.23 1083.18 511.65 1073.35 525.57 1063.52 539.49 1055.82 549.32 1047.63 559.81 1043.7 564.8 1039.93 569.72 1035.51 575.45L1035.1 576.52 1068.35 609.44 1070.15 609.19Z" fill="#ffae30" opacity="1" stroke-width="4" stroke="none"></path><path d="M1115.69 526.06C1102.1 545.56 1093.58 585.28 1093.58 585.28 1105.45 571.93 1113.73 560.71 1115.69 558.09L1121.75 528.52C1122.41 525.16 1117.66 523.28 1115.69 526.06Z" fill="#000000" opacity="0.3" stroke-width="4" stroke="none"></path><path d="M1155.58 714.77L1150.66 643.27" stroke="#261b14" stroke-width="4" stroke-linecap="round" stroke-linejoin="round" opacity="1" fill="none"></path><path d="M996.6 651.13C1004.88 651.13 1025.19 642.12 1038.95 633.68 1049.92 626.39 1060.33 618.29 1069.99 609.36L1070.15 609.19 1035.51 575.45 1035.34 575.61C1031.25 581.02 1027.32 586.34 1023.31 591.83 1022.24 591.75 1013.8 590.85 1002.17 589.95 1000.86 589.87 999.47 589.7 998.08 589.62 991.44 589.13 983.91 588.47 978.34 588.47 973.26 588.47 970.64 588.96 970.15 590.03 969.74 590.77 969.74 591.67 970.07 592.49 970.89 594.37 973.59 596.17 978.18 597.81 974.98 598.3 963.35 600.43 960.65 605.34 959.91 606.57 959.83 608.05 960.49 609.36 959.58 609.77 955.74 611.65 955.74 615.26 955.74 617.79 958.6 619.6 959.42 620.09 958.77 620.66 956.88 622.63 956.96 625 957.05 626.48 957.95 627.79 959.58 628.93 961.71 630.33 965.4 631.06 970.81 631.06 976.87 630.9 982.85 630.49 988.82 629.67 993.49 629.18 997.92 628.69 1000.95 628.69 1003.24 628.69 1004.63 629.01 1004.96 629.59 1005.12 629.92 1005.04 630.33 1004.8 630.65 1002.99 633.27 1000.86 635.81 998.57 638.02 994.31 642.45 990.63 646.21 993.25 650.15 993.9 650.72 994.97 651.13 996.6 651.13Z" fill="#eaa58b" opacity="1" stroke-width="4" stroke="none"></path><path d="M978.18 597.81C987.51 596.25 995.29 595.68 995.29 595.68" stroke="#000000" stroke-width="4" stroke-linecap="round" stroke-linejoin="round" opacity="1" fill="none"></path><path d="M960.49 609.36C972.61 606.49 998.08 603.13 998.08 603.13" stroke="#000000" stroke-width="4" stroke-linecap="round" stroke-linejoin="round" opacity="1" fill="none"></path><path d="M959.42 620.09C975.06 617.06 1000.54 614.6 1000.54 614.6" stroke="#000000" stroke-width="4" stroke-linecap="round" stroke-linejoin="round" opacity="1" fill="none"></path><path d="M1136.33 395.84L1136.09 395.59C1135.18 394.85 1134.94 393.63 1135.35 392.64L1135.84 390.76" stroke="#000000" stroke-width="4" stroke-linecap="round" stroke-linejoin="round" opacity="1" fill="none"></path><path d="M1141.41 402.31C1139.2 405.17 1135.27 405.01 1134.04 404.11" stroke="#000000" stroke-width="4" stroke-linecap="round" stroke-linejoin="round" opacity="1" fill="none"></path><path d="M1147.22 389.37C1148.4 389.37 1149.35 388.42 1149.35 387.24 1149.35 386.07 1148.4 385.11 1147.22 385.11 1146.04 385.11 1145.09 386.07 1145.09 387.24 1145.09 388.42 1146.04 389.37 1147.22 389.37Z" fill="#000000" opacity="1" stroke-width="4" stroke="none"></path><path d="M1128.55 386.58C1129.72 386.58 1130.68 385.63 1130.68 384.45 1130.68 383.27 1129.72 382.32 1128.55 382.32 1127.37 382.32 1126.42 383.27 1126.42 384.45 1126.42 385.63 1127.37 386.58 1128.55 386.58Z" fill="#000000" opacity="1" stroke-width="4" stroke="none"></path><path d="M1149.85 429.25C1153.45 428.27 1157.46 427.7 1160.74 426.63" stroke="#000000" stroke-width="4" stroke-linecap="round" stroke-linejoin="round" opacity="1" fill="none"></path><path d="M1172.12 402.31L1178.27 399.2" stroke="#000000" stroke-width="4" stroke-linecap="round" stroke-linejoin="round" opacity="1" fill="none"></path><path d="M1322.66 257.09L1320.78 264.87C1320.78 264.87 1328.15 278.8 1324.05 294.36" stroke="#000000" stroke-width="4" stroke-linecap="round" stroke-linejoin="round" opacity="1" fill="none"></path><path d="M1365.99 239.07L1335.52 261.6" stroke="#000000" stroke-width="4" stroke-linecap="round" stroke-linejoin="round" opacity="1" fill="none"></path><path d="M1373.52 249.31L1343.71 272.25" stroke="#000000" stroke-width="4" stroke-linecap="round" stroke-linejoin="round" opacity="1" fill="none"></path><path d="M1361.48 275.19L1348.62 283.71" stroke="#000000" stroke-width="4" stroke-linecap="round" stroke-linejoin="round" opacity="1" fill="none"></path><path d="M1067.53 706.5C1066.47 709.53 1065.4 712.47 1064.42 715.42 1058.77 732.13 1064.83 749.9 1078.18 759.98 1068.02 763.25 1060.57 772.84 1060.57 784.14 1060.57 798.14 1071.96 809.53 1085.96 809.53 1099.97 809.53 1111.35 798.14 1111.35 784.14 1111.35 778 1109.14 772.35 1105.54 768 1119.05 766.94 1131.58 758.99 1138.05 746.22 1139.53 743.35 1141.08 740.4 1142.8 737.37L1067.53 706.5Z" fill="#5b2c31" opacity="1" stroke-width="4" stroke="none"></path><path d="M1085.96 793.97C1091.39 793.97 1095.79 789.57 1095.79 784.14 1095.79 778.71 1091.39 774.31 1085.96 774.31 1080.53 774.31 1076.13 778.71 1076.13 784.14 1076.13 789.57 1080.53 793.97 1085.96 793.97Z" fill="#000000" opacity="1" stroke-width="4" stroke="none"></path><path d="M1115.69 558.09C1117.66 545.8 1122.57 526.14 1124.21 516.32" stroke="#000000" stroke-width="4" stroke-linecap="round" stroke-linejoin="round" opacity="1" fill="none"></path><path d="M1224.21 581.67L1121.02 581.59" stroke="#000000" stroke-width="4" stroke-linecap="round" stroke-linejoin="round" opacity="1" fill="none"></path><path d="M1072.28 943.6L1065.98 968.5" stroke="#261b14" stroke-width="4" stroke-linecap="round" stroke-linejoin="round" opacity="1" fill="none"></path><path d="M1029.2 936.48L1040.67 940.57" stroke="#261b14" stroke-width="4" stroke-linecap="round" stroke-linejoin="round" opacity="1" fill="none"></path><path d="M1021.5 944.42L1030.84 952.04" stroke="#261b14" stroke-width="4" stroke-linecap="round" stroke-linejoin="round" opacity="1" fill="none"></path><path d="M1187.03 936.31L1198.74 940.57" stroke="#261b14" stroke-width="4" stroke-linecap="round" stroke-linejoin="round" opacity="1" fill="none"></path><path d="M1179.41 944.34L1188.91 952.04" stroke="#261b14" stroke-width="4" stroke-linecap="round" stroke-linejoin="round" opacity="1" fill="none"></path><path d="M1225.93 943.93L1220.45 968.5" stroke="#261b14" stroke-width="4" stroke-linecap="round" stroke-linejoin="round" opacity="1" fill="none"></path><path d="M1188.91 883.98H1260.91" stroke="#261b14" stroke-width="4" stroke-linecap="round" stroke-linejoin="round" opacity="1" fill="none"></path><path d="M1071.14 878.74L1070.15 893.07" stroke="#1e1516" stroke-width="4" stroke-linecap="round" stroke-linejoin="round" opacity="1" fill="none"></path><path d="M1073.76 839.34L1071.79 868.83" stroke="#1e1516" stroke-width="4" stroke-linecap="round" stroke-linejoin="round" opacity="1" fill="none"></path><path d="M1164.26 448.42L1160.25 581.59" stroke="#000000" stroke-width="4" stroke-linecap="round" stroke-linejoin="round" opacity="1" fill="none"></path><path d="M1238.87 615.83H1213.48V632.7C1213.48 649.82 1227.41 663.74 1244.53 663.74" stroke="#261b14" stroke-width="4" stroke-linecap="round" stroke-linejoin="round" opacity="1" fill="none"></path><path d="M1035.51 575.45L1070.15 609.19" stroke="#000000" stroke-width="4" stroke-linecap="round" stroke-linejoin="round" opacity="1" fill="none"></path><path d="M1327.08 343.58L1276.47 324.91" stroke="#000000" stroke-width="4" stroke-linecap="round" stroke-linejoin="round" opacity="1" fill="none"></path><path d="M1078.18 759.98C1081.87 762.76 1086.04 764.97 1090.55 766.28 1095.46 767.84 1100.54 768.41 1105.62 768" stroke="#1e1516" stroke-width="4" stroke-linecap="round" stroke-linejoin="round" opacity="1" fill="none"></path><path d="M1149.85 429.25L1150.17 437.12C1150.17 437.12 1158.45 434.25 1164.67 428.35 1165.24 427.78 1165.32 426.8 1164.75 426.22 1164.34 425.81 1163.69 425.65 1163.11 425.81 1158.77 427.29 1154.35 428.43 1149.85 429.25Z" fill="#000000" opacity="0.3" stroke-width="4" stroke="none"></path><path d="M1151.48 320.57C1148.21 325.48 1151.48 333.43 1151.48 333.43" stroke="#000000" stroke-width="4" stroke-linecap="round" stroke-linejoin="round" opacity="1" fill="none"></path><path d="M1194.07 326.3C1184.65 331.22 1183.83 336.05 1183.83 336.05" stroke="#000000" stroke-width="4" stroke-linecap="round" stroke-linejoin="round" opacity="1" fill="none"></path><path d="M1140.84 358.24C1148.21 355.46 1151.48 352.02 1151.48 352.02" stroke="#000000" stroke-width="4" stroke-linecap="round" stroke-linejoin="round" opacity="1" fill="none"></path><path d="M1164.59 368.07C1165.32 360.7 1169.58 354.15 1169.58 354.15" stroke="#000000" stroke-width="4" stroke-linecap="round" stroke-linejoin="round" opacity="1" fill="none"></path><path d="M1222.74 393.46C1217.09 397.56 1209.39 399.2 1209.39 399.2" stroke="#000000" stroke-width="4" stroke-linecap="round" stroke-linejoin="round" opacity="1" fill="none"></path><path d="M1219.46 352.51C1215.7 359.88 1206.19 362.99 1206.19 362.99" stroke="#000000" stroke-width="4" stroke-linecap="round" stroke-linejoin="round" opacity="1" fill="none"></path></g><g><path d="M610.22 286.66H989.78C1022.16 286.66 1048.44 312.93 1048.44 345.32V740.77C1048.44 773.15 1022.16 799.43 989.78 799.43H610.22C577.84 799.43 551.56 773.15 551.56 740.77V345.42C551.56 313.04 577.84 286.66 610.22 286.66Z" fill="#ffffff" opacity="1" stroke-width="4" stroke="none"></path></g><g><path d="M869.55 707.45L713.95 550.09 869.55 392.73 896.68 392.73 896.68 707.45 869.55 707.45Z" fill="#7a553b" opacity="1" stroke-width="4" stroke="none"></path><path d="M869.55 707.45L869.55 392.73 842.44 392.73 842.44 707.45 869.55 707.45Z" fill="#c2706d" opacity="1" stroke-width="4" stroke="none"></path><path d="M809.3 707.45L809.3 392.73 782.19 392.73 782.19 707.45 809.3 707.45Z" fill="#ffffff" opacity="1" stroke-width="4" stroke="none"></path><path d="M782.19 707.45L782.19 392.73 755.06 392.73 755.06 707.45 782.19 707.45Z" fill="#cdb389" opacity="1" stroke-width="4" stroke="none"></path><path d="M755.06 707.45L755.06 392.73 725.27 392.73 725.27 707.45 755.06 707.45Z" fill="#91542c" opacity="1" stroke-width="4" stroke="none"></path><path d="M725.87 707.45L725.87 392.73 702.64 392.73 702.64 707.45 721.33 707.45Z" fill="#562400" opacity="1" stroke-width="4" stroke="none"></path><path d="M842.44 707.45L842.44 392.73 809.3 392.73 809.3 707.45 842.44 707.45Z" fill="#dfaaaf" opacity="1" stroke-width="4" stroke="none"></path></g><g><path d="M685.19 948.62C691.35 943.11 697.43 937.12 703.58 931.05 723.16 911.54 740.57 891.95 752.42 875.68 764.28 859.4 769.23 848.56 766.38 845.08 765.56 844.27 764.43 843.78 763.3 843.94 751.97 843.94 717.68 869.77 681.74 905.39 675.82 911.21 670.04 917.21 664.56 923.11L664.49 923.2 685.12 948.53 685.19 948.62Z" fill="#dd7676" opacity="1" stroke-width="4" stroke="none"></path><path d="M685.19 948.62C691.35 943.11 697.43 937.12 703.58 931.05 717.46 917.53 730.59 903.12 742.9 888.06L742.6 887.74C725.79 899.72 711.98 907.17 695.7 907.17 691.05 907.17 686.47 906.52 681.89 905.39H681.74L681.67 905.47C675.74 911.3 670.04 917.29 664.56 923.2L664.49 923.28 685.12 948.62H685.19Z" fill="#8a7979" opacity="0.2" stroke-width="4" stroke="none"></path><path d="M591.4 943.43L590.13 942.14C562.89 915.26 535.58 896.48 523.87 896.48 521.92 896.48 520.35 897.05 519.45 898.1 518.47 899.31 518.02 900.85 518.17 902.47 518.54 914.45 537.75 941.57 564.99 968.53L565.07 968.61 591.4 943.43Z" fill="#dd7676" opacity="1" stroke-width="4" stroke="none"></path><path d="M591.33 943.43L590.05 942.14C581.42 933.56 569.79 923.52 568.37 922.31 566.94 921.09 562.66 917.77 562.66 917.77L562.59 917.85C562.51 917.93 556.14 924.25 543.61 924.25 537.53 924.17 531.53 922.87 525.9 920.52L525.37 920.36 525.67 920.85C533.93 934.53 548.26 951.93 564.99 968.53L565.07 968.61 591.33 943.43Z" fill="#8a7979" opacity="0.2" stroke-width="4" stroke="none"></path><path d="M627.72 937.52L627.64 937.36C623.52 930 619.01 922.47 614.44 915.02 586 868.96 557.11 834.23 547.28 834.23 546.61 834.23 546.01 834.39 545.48 834.79 538.13 840.14 557.04 884.82 587.73 934.29 592.23 941.49 596.73 948.53 601.31 955.33L601.38 955.5 627.72 937.52Z" fill="#dd7676" opacity="1" stroke-width="4" stroke="none"></path><path d="M627.87 937.61L627.79 937.44C623.67 930.08 619.16 922.55 614.59 915.1 610.69 908.79 606.78 902.63 602.81 896.72L602.73 896.64 602.58 896.72C600.11 897.7 597.48 898.18 594.85 898.1 586.23 898.1 572.42 894.13 555.76 874.87L555.46 875.19C563.41 892.68 574.82 913.72 587.8 934.53 592.3 941.73 596.8 948.78 601.38 955.58L601.46 955.74 627.87 937.61Z" fill="#8a7979" opacity="0.2" stroke-width="4" stroke="none"></path><path d="M647.83 982.29V982.13C647.83 947.16 621.12 918.82 588.18 918.82 555.24 918.82 528.52 947.16 528.52 982.13V982.29H647.83Z" fill="#ffcca0" opacity="1" stroke-width="4" stroke="none"></path><path d="M554.79 982.29L554.71 981.97C552.61 975.65 549.01 973.55 545.26 971.2 540.83 968.61 536.33 965.94 533.85 956.47L533.78 956.14 533.63 956.55C530.25 964.56 528.52 973.23 528.6 981.97V982.29H554.79Z" fill="#c0bfbe" opacity="0.2" stroke-width="4" stroke="none"></path><path d="M759.48 982.29V982.13C759.48 952.02 736.82 927.57 708.91 927.57 680.99 927.57 658.33 952.02 658.33 982.13V982.29H759.48Z" fill="#ffcca0" opacity="1" stroke-width="4" stroke="none"></path><path d="M738.77 982.29L738.69 981.97C737.42 977.03 733.44 975.17 728.94 973.06 723.54 970.55 717.31 967.64 714.38 958.57 709.88 944.65 702.6 937.61 692.85 937.61 685.49 937.61 678.14 941.57 673.41 944.32 672.74 944.73 671.99 945.13 671.24 945.46 662.91 955.5 658.26 968.45 658.26 981.89V982.29H738.77V982.29Z" fill="#c0bfbe" opacity="0.2" stroke-width="4" stroke="none"></path><path d="M706.35 982.29V982.13C706.35 932.83 677.39 892.6 641.75 892.6 606.11 892.6 577.15 932.83 577.15 982.13V982.29L706.35 982.29Z" fill="#ffcca0" opacity="1" stroke-width="4" stroke="none"></path><path d="M625.99 982.29L626.07 982.21C630.5 971.53 625.09 964.08 619.92 956.87 616.46 952.1 613.24 947.64 612.64 942.3 611.81 935.66 613.54 929.59 615.41 923.2 617.59 915.75 619.84 907.98 617.59 899.31L617.51 899.15 617.36 899.23C592.98 913 577.15 945.54 577.15 982.13V982.29H625.99Z" fill="#c0bfbe" opacity="0.2" stroke-width="4" stroke="none"></path><path d="M701.1 947.24C699.3 941.33 696.97 935.58 694.2 930.16" stroke="#888888" stroke-width="4" stroke-linecap="round" stroke-linejoin="round" opacity="1" fill="none"></path><path d="M596.28 918.91C588.1 930.24 582.02 944.73 579.25 960.84" stroke="#888888" stroke-width="4" stroke-linecap="round" stroke-linejoin="round" opacity="1" fill="none"></path><path d="M684.52 857.78C684.52 857.78 671.84 877.7 664.26 898.26" stroke="#010005" stroke-width="4" stroke-linecap="round" stroke-linejoin="round" opacity="1" fill="none"></path><path d="M697.8 865.72C706.43 865.72 713.86 861.43 717.68 854.22 720.76 848.48 721.21 841.51 718.96 834.71 716.56 827.67 711.83 821.76 705.75 818.12 701.18 815.2 695.92 813.66 690.6 813.66 681.97 813.66 674.54 817.96 670.71 825.16 667.64 830.91 667.19 837.87 669.44 844.67 671.84 851.71 676.57 857.62 682.64 861.27 687.3 864.18 692.47 865.72 697.8 865.72Z" fill="#ffae30" opacity="1" stroke-width="4" stroke="none"></path><path d="M694.72 843.54C695.92 843.62 696.97 842.97 697.58 841.92 698.03 841.03 698.1 840.06 697.73 839.08 697.35 838.11 696.67 837.22 695.85 836.66 695.17 836.25 694.42 836.01 693.67 836.01 692.47 835.93 691.42 836.57 690.82 837.63 690.37 838.52 690.3 839.49 690.67 840.46 691.05 841.43 691.72 842.32 692.55 842.89 693.22 843.29 693.97 843.54 694.72 843.54Z" fill="#050300" opacity="1" stroke-width="4" stroke="none"></path></g><g><path d="M355.44 963.9C349.21 965.42 308.49 944.18 307.05 943.46 307.05 943.46 307.05 943.46 307.05 943.38 305.93 922.38 307.37 900.98 311.2 880.38 311.2 880.38 311.2 880.3 311.28 880.3L351.36 872.24 387.21 880.7C387.29 880.7 387.29 880.78 387.29 880.78 379.63 898.27 374.12 912.16 372.68 922.3 372.6 922.62 361.66 962.38 355.44 963.9Z" fill="#a66241" opacity="1" stroke-width="4" stroke="none"></path><path d="M473.13 959.91C467.14 961.35 422.9 944.18 421.39 943.54 421.39 943.54 421.31 943.54 421.31 943.46 419.31 927.33 417.16 914.08 416.76 895.79 416.68 890.68 416.92 885.49 417.08 880.22 417.08 880.22 417.08 880.14 417.16 880.14L452.61 875.27 492.05 879.98C492.13 879.98 492.13 880.06 492.13 880.06 490.05 893 488.62 904.97 488.46 914.8 488.46 917.43 488.46 919.75 488.54 922.06 488.54 922.14 488.54 922.14 488.46 922.14 476.56 922.54 479.43 958.31 473.13 959.91Z" fill="#a66241" opacity="1" stroke-width="4" stroke="none"></path><path d="M605.52 407.38C607.19 405.71 613.34 408.1 612.7 416.57 612.7 416.65 612.78 416.72 612.86 416.65 620.13 402.91 639.05 375.6 643.76 389.74 643.76 389.82 643.84 389.82 643.84 389.82 650.15 385.98 653.26 392.21 651.75 397.72 651.75 397.8 651.75 397.8 651.83 397.8 658.85 397.88 658.14 404.91 656.54 408.9V408.98C664.36 413.85 647.91 441.48 646.88 442.43 644.56 449.62 640.49 463.11 634.1 469.58 634.1 469.58 634.1 469.58 634.1 469.66 634.42 477.09 634.5 484.27 634.34 490.74 634.34 490.82 634.34 490.82 634.26 490.82L608.31 492.34C608.31 492.34 608.31 492.34 608.23 492.34L582.2 473.57V473.49C587.79 451.54 597.53 415.37 605.52 407.38Z" fill="#a66241" opacity="1" stroke-width="4" stroke="none"></path><path d="M505.7 352.45C496.28 331.77 472.33 325.86 448.38 338.8 427.86 350.13 430.49 362.67 431.93 379.44 432.33 383.83 430.33 401.71 431.53 415.13 431.85 418.8 432.33 422.15 432.65 425.03L432.89 426.07 488.62 427.66C488.7 427.66 488.78 425.19 488.78 425.19L488.22 421.36C488.22 421.28 488.3 421.28 488.3 421.28 519.2 427.02 525.19 405.55 517.04 383.11V383.03C523.51 376.72 522.23 372.65 512.65 371.93 512.65 371.93 512.57 371.93 512.57 371.85 511.53 367.06 507.78 356.92 505.7 352.45Z" fill="#a66241" opacity="1" stroke-width="4" stroke="none"></path><path d="M488.23 421.36L488.78 425.03V425.11L489.42 433.89C489.42 433.97 489.34 433.97 489.26 433.97L471.94 416.41C471.86 416.33 471.94 416.25 472.02 416.25 481.12 419.6 487.59 421.12 488.23 421.36 488.23 421.28 488.23 421.28 488.23 421.36Z" fill="#171717" opacity="0.2" stroke-width="4" stroke="none"></path><path d="M509.38 391.41C509.38 391.41 505.31 392.37 502.04 388.62" stroke="#171717" stroke-width="4" stroke-linecap="round" stroke-linejoin="round" opacity="1" fill="none"></path><path d="M488.23 421.28C485.03 420.48 475.05 417.76 472.02 416.33" stroke="#171717" stroke-width="4" stroke-linecap="round" stroke-linejoin="round" opacity="1" fill="none"></path><path d="M467.71 395.65L460.28 390.06" stroke="#171717" stroke-width="4" stroke-linecap="round" stroke-linejoin="round" opacity="1" fill="none"></path><path d="M501.8 370.02C498.53 370.1 498.53 374.89 501.8 374.97 505.07 374.89 505.07 370.1 501.8 370.02Z" fill="#17151c" opacity="1" stroke-width="4" stroke="none"></path><path d="M428.41 382.55C426.82 365.86 427.38 346.38 447.9 335.12 472.41 322.91 495.48 327.54 505.7 352.37V352.45C505.14 353.09 496.68 362.11 472.97 353.01 472.89 353.01 472.81 353.09 472.89 353.09 477.44 359.72 481.91 372.49 476.72 382.63 476.72 382.71 476.64 382.71 476.56 382.63 445.1 360.59 432.65 391.17 459.79 408.18 459.87 408.18 459.87 408.26 459.79 408.34 449.01 416.57 432.73 415.21 431.61 415.05L431.53 414.97C430.25 402.27 428.97 386.94 428.41 382.55Z" fill="#17151c" opacity="1" stroke-width="4" stroke="none"></path><path d="M397.44 466.71C408.86 449.14 419.24 441.48 433.61 435.89L433.69 435.81 432.65 425.19C432.65 425.11 432.65 425.11 432.73 425.11H488.7C488.78 425.11 488.78 425.11 488.78 425.19L489.98 434.77C489.98 434.85 490.06 434.85 490.06 434.85 526.55 432.69 557.29 466.87 578.37 490.18 578.45 490.26 578.53 490.18 578.53 490.18 578.77 489.14 580.13 482.84 582.36 473.65 582.36 473.57 582.44 473.57 582.44 473.57L634.42 490.82 634.5 490.9C634.18 576.73 591.15 584.32 539.73 547.27 532.62 542.4 525.99 536.97 519.92 530.82 519.84 530.74 519.84 530.82 519.76 530.82L512.98 552.86 505.95 575.7 505.87 575.78 459 584.96 420.28 575.94H420.2L408.94 589.99C408.78 590.63 401.83 619.85 395.45 614.74 389.62 610.03 385.23 603.72 382.19 596.46 365.34 556.77 384.99 486.03 397.44 466.71Z" fill="#ff9f61" opacity="1" stroke-width="4" stroke="none"></path><path d="M382.27 596.53C408.62 577.37 411.57 531.54 411.89 525.31 411.89 525.23 412.05 525.23 412.05 525.31 413.89 536.81 418.44 565.4 420.12 575.7V575.78L408.94 590.31C408.78 590.71 397.68 618.09 392.09 611.95 385.86 605.8 382.43 597.41 382.11 596.69 382.27 596.61 382.27 596.61 382.27 596.53Z" fill="#2f2f2f" opacity="0.2" stroke-width="4" stroke="none"></path><path d="M329.89 821.86C351.61 775.31 357.84 784.33 376.28 663.68 382.75 621.45 398.72 595.02 420.2 575.7 420.2 575.7 420.2 575.7 420.28 575.7H446.55 505.95C505.95 575.7 506.03 575.7 506.03 575.78 506.43 578.49 520.4 671.75 508.19 785.85 505.55 810.68 499.32 839.98 494.61 866.41 493.73 871.2 492.94 875.43 492.3 880.06 492.3 880.06 492.3 880.14 492.22 880.14L417.32 880.22C417.24 880.22 417.24 880.22 417.24 880.14 418.28 853.55 423.07 825.69 433.69 784.49 435.45 775.47 436.97 758.46 436.65 758.46 430.1 779.7 422.19 802.29 412.93 824.89 405.43 843.25 396.96 861.78 387.46 880.7 387.46 880.7 387.46 880.78 387.38 880.78 385.39 880.78 314.32 880.46 311.37 880.46 311.29 880.46 311.29 880.38 311.29 880.38 314.96 859.94 321.27 840.7 329.89 821.86Z" fill="#ffae30" opacity="1" stroke-width="4" stroke="none"></path><path d="M328.29 943.46C339.23 943.46 348.57 957.51 354.88 956 361.26 954.48 349.37 941.94 349.37 931.8 349.37 922.86 359.59 922.46 372.52 922.38 372.6 922.38 372.6 922.46 372.6 922.46 371.41 930.13 372.28 936.03 376.2 940.03 388.01 952.48 399.03 955.36 406.94 967.17 407.57 968.21 408.45 969.33 408.85 970.61 408.85 970.69 408.85 970.69 408.77 970.69 405.26 970.85 316.39 974.04 314.56 974.12 314.56 974.12 314.56 974.12 314.48 974.12L310.08 970.61C310.08 970.61 310.08 970.61 310.08 970.53 308.65 961.5 307.61 952.48 307.13 943.46 307.13 943.38 307.13 943.38 307.21 943.38L328.29 943.46Z" fill="#5b2c31" opacity="1" stroke-width="4" stroke="none"></path><path d="M451.41 627.83C443.58 627.83 438.95 621.53 441.03 613.7L445.26 598.21H473.53L469.37 613.7C467.14 621.53 459.15 627.83 451.41 627.83Z" stroke="#080602" stroke-width="4" stroke-linecap="round" stroke-linejoin="round" opacity="1" fill="none"></path><path d="M400.16 598.29H415.73L411.57 613.86C409.42 621.61 400.88 628.07 394.65 628.07 391.37 628.07 388.98 627.43 387.22 626.32" stroke="#080602" stroke-width="4" stroke-linecap="round" stroke-linejoin="round" opacity="1" fill="none"></path><path d="M505.95 575.78L420.28 575.62 412.05 525.31" stroke="#2f2f2f" stroke-width="4" stroke-linecap="round" stroke-linejoin="round" opacity="1" fill="none"></path><path d="M416.92 558.77L405.67 562.36" stroke="#2f2f2f" stroke-width="4" stroke-linecap="round" stroke-linejoin="round" opacity="1" fill="none"></path><path d="M578.36 490.18L572.21 483.4" stroke="#2f2f2f" stroke-width="4" stroke-linecap="round" stroke-linejoin="round" opacity="1" fill="none"></path><path d="M519.84 530.82L513.05 552.7C513.05 552.78 512.89 552.78 512.89 552.7L498.92 511.98C498.92 511.9 499 511.82 499.08 511.9L519.84 530.82C519.84 530.74 519.84 530.74 519.84 530.82Z" fill="#2f2f2f" opacity="0.2" stroke-width="4" stroke="none"></path><path d="M519.84 530.9L499.08 511.9" stroke="#2f2f2f" stroke-width="4" stroke-linecap="round" stroke-linejoin="round" opacity="1" fill="none"></path><path d="M489.97 434.77C489.97 434.77 495.64 434.53 499.88 435.09" stroke="#2f2f2f" stroke-width="4" stroke-linecap="round" stroke-linejoin="round" opacity="1" fill="none"></path><path d="M423.22 665.36C426.98 698.74 438.95 717.66 436.56 758.38" stroke="#080602" stroke-width="4" stroke-linecap="round" stroke-linejoin="round" opacity="1" fill="none"></path><path d="M643.83 389.74C635.85 399.32 620.68 423.19 620.68 423.19" stroke="#171717" stroke-width="4" stroke-linecap="round" stroke-linejoin="round" opacity="1" fill="none"></path><path d="M651.91 397.8C647.91 403.39 636.74 420 630.27 431.18" stroke="#171717" stroke-width="4" stroke-linecap="round" stroke-linejoin="round" opacity="1" fill="none"></path><path d="M656.7 408.98C656.7 408.98 644.64 429.66 639.05 439.24" stroke="#171717" stroke-width="4" stroke-linecap="round" stroke-linejoin="round" opacity="1" fill="none"></path><path d="M445.83 943.14C456.77 943.14 466.27 957.35 472.5 955.84 482.72 952.56 444.79 920.78 488.47 922.3 488.55 922.3 488.55 922.3 488.55 922.38 488.31 950.25 522.8 951.05 531.58 970.61 531.58 970.61 531.58 970.61 531.58 970.69 531.5 970.93 531.02 972.52 530.94 972.84 530.94 972.84 530.94 972.92 530.86 972.92L428.5 973.72H428.42L426.19 970.77C424.19 961.82 422.51 952.72 421.24 943.7 421.24 943.62 421.24 943.62 421.32 943.62 422.99 943.46 445.83 943.14 445.83 943.14Z" fill="#5b2c31" opacity="1" stroke-width="4" stroke="none"></path><path d="M612.86 416.65C610.94 420.16 607.51 426.15 607.51 426.15" stroke="#171717" stroke-width="4" stroke-linecap="round" stroke-linejoin="round" opacity="1" fill="none"></path><path d="M496.21 941.54L488.94 948.09" stroke="#000000" stroke-width="4" stroke-linecap="round" stroke-linejoin="round" opacity="1" fill="none"></path><path d="M504.11 948.09L498.52 956.08" stroke="#000000" stroke-width="4" stroke-linecap="round" stroke-linejoin="round" opacity="1" fill="none"></path><path d="M377.55 941.94L370.69 948.09" stroke="#000000" stroke-width="4" stroke-linecap="round" stroke-linejoin="round" opacity="1" fill="none"></path><path d="M385.23 948.25L380.28 956.08" stroke="#000000" stroke-width="4" stroke-linecap="round" stroke-linejoin="round" opacity="1" fill="none"></path><path d="M411.65 982.1H312.49C312.49 982.1 312.41 982.1 312.41 982.02 312.25 981.55 311.21 977.47 310.09 970.69 310.09 970.61 310.09 970.61 310.17 970.61L408.86 970.69C408.86 970.69 408.94 970.69 408.94 970.77 410.54 974.28 411.57 978.11 411.81 982.02 411.73 982.02 411.65 982.1 411.65 982.1Z" fill="#000000" opacity="1" stroke-width="4" stroke="none"></path><path d="M531.66 970.69C533.26 974.28 534.22 978.19 534.38 982.02 534.38 982.1 534.38 982.1 534.3 982.1H429.3C429.3 982.1 429.22 982.1 429.22 982.02 429.06 981.55 428.02 977.79 426.35 970.69 426.35 970.61 426.35 970.61 426.43 970.61 429.78 970.37 529.11 970.69 531.66 970.69 531.66 970.61 531.66 970.61 531.66 970.69Z" fill="#000000" opacity="1" stroke-width="4" stroke="none"></path><path d="M436.56 758.46C433.36 768.68 429.37 781.54 425.06 793.03 421.23 803.41 416.76 815.63 413 824.49 413 824.57 412.84 824.57 412.84 824.49 413.4 815.79 421.47 689.39 423.22 665.52 423.22 665.44 423.38 665.44 423.38 665.52 426.34 695.54 437.6 722.85 436.56 758.46Z" fill="#080602" opacity="0.2" stroke-width="4" stroke="none"></path></g><g><path d="M859.18 981.9C859.18 930.78 883.75 906.07 898.52 891.3 901.45 888.37 904.04 885.78 906.01 883.4 917.72 869.44 918.81 866.24 931.61 827.24L933.58 821.25C943.45 791.23 952.78 772.57 957.41 764.13 957.88 763.31 958.7 762.63 959.52 762.29 959.99 762.09 960.54 762.02 961.02 762.02 962.72 762.02 964.28 763.04 964.9 764.61L973.47 786.12C982.66 787.28 990.97 794.83 991.04 794.9L1019.7 788.09C1019.76 788.03 1019.83 788.03 1019.9 788.03 1020.17 787.96 1020.45 787.96 1020.79 787.96 1022.96 787.96 1024.94 789.52 1025.35 791.63 1026.37 797.35 1025.82 808.99 1016.91 816.55 1015.48 817.77 1013.57 819 1011.53 820.29 1004.79 824.65 996.41 830.1 996.41 839.97V965.43C996.41 965.43 996.41 965.43 996.48 965.43 1003.56 965.43 1009.28 971.21 1009.28 978.29V981.83L859.18 981.9Z" fill="#ffa0dc" opacity="1" stroke-width="4" stroke="none"></path><path d="M993.22 891.43C978.44 891.43 966.46 879.45 966.46 864.68V848.61H996.41V891.5H993.22V891.43Z" fill="#ffffff" opacity="1" stroke-width="4" stroke="none"></path><path d="M970.55 981.29V978.43C970.55 971.9 965.24 966.65 958.77 966.65H956.45L952.23 931.87C950.33 915.94 936.78 903.96 920.72 903.96" stroke="#c4278a" stroke-width="4" stroke-linecap="round" stroke-linejoin="round" opacity="1" fill="none"></path><path d="M983.48 804.23C984.76 804.23 985.8 803.19 985.8 801.91 985.8 800.64 984.76 799.6 983.48 799.6 982.2 799.6 981.17 800.64 981.17 801.91 981.17 803.19 982.2 804.23 983.48 804.23Z" fill="#191919" opacity="1" stroke-width="4" stroke="none"></path><path d="M1025.69 797.69C1020.38 797.69 1015.68 794.36 1014.05 789.39L1019.76 788.03C1019.83 787.96 1019.9 787.96 1019.97 787.96 1020.24 787.89 1020.51 787.89 1020.85 787.89 1023.03 787.89 1025.01 789.46 1025.41 791.57 1025.69 793.61 1025.82 795.72 1025.69 797.69Z" fill="#c4278a" opacity="1" stroke-width="4" stroke="none"></path><path d="M921.19 857.6C922.69 853.72 924.26 849.09 926.16 843.23L926.64 841.74H996.48V857.67H921.19V857.6Z" fill="#5b2c31" opacity="1" stroke-width="4" stroke="none"></path><path d="M972.04 981.9V978.77C972.04 971.83 966.39 966.11 959.38 966.11H956.93L951.89 929.69C951.08 922.75 945.97 915.33 940.46 910.83L949.24 911.38C959.25 913.96 966.6 922.27 967.89 932.55L972.04 965.5H976.95C982.12 965.5 986.27 969.38 986.61 974.48L987.16 981.9H972.04V981.9Z" fill="#c4278a" opacity="0.3" stroke-width="4" stroke="none"></path></g></svg>