<svg xmlns="http://www.w3.org/2000/svg" height="1200" width="1600" version="1.1" xmlns:xlink="http://www.w3.org/1999/xlink" xmlns:svgjs="http://svgjs.com/svgjs"><rect fill="#f3ebe9" width="1600" height="1200"></rect><g><path d="M1055.81 279.4H539.88C504.94 279.4 476.7 307.65 476.7 342.59V827.31C476.7 862.25 504.94 890.5 539.88 890.5H1055.81C1090.74 890.5 1118.99 862.25 1118.99 827.31V342.59C1118.99 307.76 1090.63 279.4 1055.81 279.4Z" fill="#ffffff" opacity="1" stroke-width="4" stroke="none"></path><path d="M545.33 390.01C559.68 390.01 571.31 378.38 571.31 364.03 571.31 349.68 559.68 338.05 545.33 338.05 530.99 338.05 519.35 349.68 519.35 364.03 519.35 378.38 530.99 390.01 545.33 390.01Z" fill="#ff4f32" opacity="1" stroke-width="4" stroke="none"></path><path d="M620.77 390.01C635.12 390.01 646.74 378.38 646.74 364.03 646.74 349.68 635.12 338.05 620.77 338.05 606.43 338.05 594.79 349.68 594.79 364.03 594.79 378.38 606.43 390.01 620.77 390.01Z" fill="#ff4f32" opacity="1" stroke-width="4" stroke="none"></path><path d="M696.32 390.01C710.67 390.01 722.29 378.38 722.29 364.03 722.29 349.68 710.67 338.05 696.32 338.05 681.98 338.05 670.34 349.68 670.34 364.03 670.34 378.38 681.98 390.01 696.32 390.01Z" fill="#ff4f32" opacity="1" stroke-width="4" stroke="none"></path></g><g><path d="M1118.76 234.06C1144.54 234.06 1165.42 213.17 1165.42 187.4 1165.42 161.63 1144.54 140.75 1118.76 140.75 1092.99 140.75 1072.11 161.63 1072.11 187.4 1072.11 213.17 1092.99 234.06 1118.76 234.06Z" fill="#ffa0dc" opacity="1" stroke-width="4" stroke="none"></path></g><g><path d="M888.45 794.63L720.72 820.72C704.5 823.26 689.34 812.12 686.8 795.97 686.58 794.48 686.44 792.93 686.44 791.38L686.44 458.61C686.44 442.25 699.7 428.92 716.14 428.92 717.69 428.92 719.17 429.06 720.72 429.27L888.45 455.37C902.91 457.62 913.56 470.04 913.56 484.71V765.35C913.56 779.96 902.91 792.37 888.45 794.63Z" fill="#9e76dd" opacity="1" stroke-width="4" stroke="none"></path><path d="M878.29 707.1L836.96 710.13" stroke="#ffffff" stroke-width="4" stroke-linecap="round" stroke-linejoin="round" opacity="1" fill="none"></path><path d="M788.36 713.94L720.09 719.72" stroke="#ffffff" stroke-width="4" stroke-linecap="round" stroke-linejoin="round" opacity="1" fill="none"></path><path d="M861.15 708.58L803.81 531.89 737.09 718.31" stroke="#ffffff" stroke-width="4" stroke-linecap="round" stroke-linejoin="round" opacity="1" fill="none"></path><path d="M815.59 568.29L762.19 716.12" stroke="#ffffff" stroke-width="4" stroke-linecap="round" stroke-linejoin="round" opacity="1" fill="none"></path><path d="M840.27 644.32L787.66 645.8" stroke="#ffffff" stroke-width="4" stroke-linecap="round" stroke-linejoin="round" opacity="1" fill="none"></path></g><g><path d="M994.87 491.87C952.28 477.74 890.39 454.36 917.16 484.01 917.36 484.21 917.16 484.51 916.96 484.51 913.28 484.41 895.96 484.9 902.83 500.72 898.95 504.01 896.46 511.37 902.73 516.65 902.03 517.74 898.35 524.9 904.72 529.58 903.72 536.35 909.69 540.92 917.85 542.91 921.63 544.21 926.41 543.61 926.41 538.83 938.55 544.8 949.2 545.9 957.65 543.61 958.45 544.11 965.52 548.29 975.86 553.36 977.06 552.76 996.46 524.01 996.46 524.01L994.87 491.87Z" fill="#cf5934" opacity="1" stroke-width="4" stroke="none"></path><path d="M917.16 484L941.04 493.15" stroke="#030202" stroke-width="4" stroke-linecap="round" stroke-linejoin="round" opacity="1" fill="none"></path><path d="M1064.52 938.13C1065.12 925.59 1063.43 908.18 1064.02 893.35 1067.8 893.05 1110.19 888.97 1111.39 888.87L1154.07 893.65C1154.17 893.65 1154.37 893.75 1154.37 893.95V895.04C1154.67 910.66 1154.87 924.4 1153.28 938.62 1150.59 939.82 1112.28 956.63 1106.01 956.63 1083.23 956.63 1065.81 939.82 1064.52 938.13Z" fill="#cf5934" opacity="1" stroke-width="4" stroke="none"></path><path d="M1196.06 938.34C1194.07 926.4 1187.7 909.78 1184.72 893.36 1188.7 892.66 1230.09 885.5 1231.78 885.3 1231.98 885.5 1273.08 893.36 1272.98 893.86 1276.26 908.29 1278.05 922.42 1278.95 938.24 1277.75 939.53 1262.13 954.16 1245.02 954.16 1222.83 953.96 1198.25 939.53 1196.06 938.34Z" fill="#cf5934" opacity="1" stroke-width="4" stroke="none"></path><path d="M1255.56 830.28C1247.01 802.12 1244.42 793.56 1246.31 760.33 1250.59 684.41 1249.39 636.45 1231.39 584.01 1222.13 584.11 1112.18 583.91 1102.63 584.01 1102.33 585.2 1068.8 677.74 1063.92 788.19 1062.13 828.09 1063.62 888.68 1063.72 893.16 1063.72 893.96 1154.37 893.86 1154.37 893.46 1151.09 840.92 1146.11 799.83 1156.16 765.2 1164.02 811.97 1175.17 863.01 1184.62 893.36 1190.09 893.36 1265.51 893.56 1272.58 893.56 1268.9 871.77 1259.15 843.41 1255.56 830.28Z" fill="#ffc930" opacity="1" stroke-width="4" stroke="none"></path><path d="M1148.8 664.01C1117.16 656.45 1135.66 866 1136.46 893.76 1138.55 893.76 1151.98 893.76 1154.07 893.86 1154.27 893.86 1154.37 893.76 1154.37 893.56 1153.87 880.82 1152.58 865.4 1151.98 854.46 1145.42 800.13 1156.16 765.3 1156.16 765.3 1149.2 719.33 1148 709.78 1148.8 664.01Z" fill="#211800" opacity="0.2" stroke-width="4" stroke="none"></path><path d="M1170.29 584H1231.19C1235.27 594.25 1237.65 604.2 1240.04 614.25 1240.04 614.25 1240.24 615.24 1240.34 615.44 1240.84 615.24 1182.03 604 1170.29 584Z" fill="#211800" opacity="0.2" stroke-width="4" stroke="none"></path><path d="M1148.8 664C1147.11 696.73 1150.79 733.45 1156.26 765.19" stroke="#211800" stroke-width="4" stroke-linecap="round" stroke-linejoin="round" opacity="1" fill="none"></path><path d="M1193.38 981.11C1200.04 972.95 1200.84 961.11 1196.16 938.82 1201.53 937.83 1273.67 938.43 1278.85 938.13 1280.34 951.86 1279.84 966.78 1278.95 981.91 1260.04 979.62 1243.82 994.84 1243.42 1013.45 1241.14 1014.35 1216.56 1021.51 1215.37 1021.81 1213.38 1021.31 1166.31 1016.43 1157.55 1013.15 1157.45 1013.05 1157.36 1012.95 1157.36 1012.75 1158.05 1010.46 1162.93 1001.01 1193.38 981.11Z" fill="#3c2c5b" opacity="1" stroke-width="4" stroke="none"></path><path d="M1243.13 1013.25C1242.43 994.74 1261.04 977.73 1278.85 981.81 1278.85 993.85 1278.05 1003.4 1275.66 1013.35 1275.66 1013.45 1275.56 1013.55 1275.37 1013.55 1271.38 1013.55 1243.13 1013.25 1243.13 1013.25Z" fill="#282828" opacity="1" stroke-width="4" stroke="none"></path><path d="M1019.64 1012.95C1019.45 1012.95 1019.35 1012.65 1019.45 1012.45 1023.33 1007.58 1028.5 1004 1034.17 999.72 1061.44 981.31 1064.02 967.58 1064.52 938.52 1069.99 938.03 1147.9 938.23 1153.38 938.82 1152.28 952.45 1150.89 966.78 1148 981.71 1145.32 982.6 1109.89 994.64 1109.3 1013.15 1109.69 1013.75 1074.37 1021.81 1072.88 1022.31 1072.78 1022.4 1019.74 1012.85 1019.64 1012.95Z" fill="#3c2c5b" opacity="1" stroke-width="4" stroke="none"></path><path d="M1108.7 1013.55C1108.7 992.75 1129.3 976.93 1148.1 981.91 1146.11 992.16 1144.62 1003.1 1141.63 1012.95 1141.63 1013.05 1141.44 1013.15 1141.34 1013.15 1137.65 1013.05 1111.58 1014.35 1108.7 1013.55Z" fill="#282828" opacity="1" stroke-width="4" stroke="none"></path><path d="M1134.37 422.41V417.73C1134.37 417.53 1134.17 417.43 1133.97 417.43 1108 425.89 1092.08 414.65 1097.26 383.4 1090.99 376.64 1088.1 371.96 1099.84 368.58 1100.44 367.68 1100.04 365.59 1100.24 364.4 1100.44 360.02 1100.64 355.84 1100.94 351.86 1101.34 346.88 1103.43 343.2 1104.92 339.42 1107.5 332.26 1112.78 333.05 1130.99 330.37 1134.67 329.87 1138.95 329.37 1142.73 329.37 1150.89 329.37 1152.88 326.29 1164.32 332.66 1195.07 348.78 1182.53 349.17 1191.78 384.2 1191.78 388.68 1191.39 417.83 1191.48 423.2 1187.31 423.7 1138.15 423.4 1134.37 422.41Z" fill="#cf5934" opacity="1" stroke-width="4" stroke="none"></path><path d="M1113.97 365.59C1117.46 365.49 1117.65 370.86 1114.07 370.96 1110.59 371.06 1110.39 365.69 1113.97 365.59Z" fill="#231f20" opacity="1" stroke-width="4" stroke="none"></path><path d="M1110.09 389.77C1113.08 389.67 1115.86 388.08 1117.36 385.49" stroke="#030202" stroke-width="4" stroke-linecap="round" stroke-linejoin="round" opacity="1" fill="none"></path><path d="M1134.37 417.33C1138.85 415.64 1142.63 414.25 1146.31 412.36" stroke="#030202" stroke-width="4" stroke-linecap="round" stroke-linejoin="round" opacity="1" fill="none"></path><path d="M1187.21 409.57C1182.13 409.57 1165.51 401.41 1162.93 400.12 1162.73 400.02 1162.73 399.82 1162.83 399.62 1165.42 397.13 1184.42 378.13 1173.47 364.4 1165.71 354.75 1146.11 367.28 1145.91 367.38 1145.51 367.78 1133.28 362.51 1133.67 346.29 1133.67 346.09 1133.47 345.89 1133.28 345.99 1121.73 352.16 1108.7 352.76 1101.53 349.37 1101.93 345.49 1105.22 342.21 1106.51 338.53 1109.1 331.36 1112.88 333.15 1131.09 330.47 1140.14 329.17 1153.57 327.58 1169.79 336.74 1186.81 346.39 1191.78 355.94 1191.78 383.6L1191.68 408.77C1191.68 408.97 1191.68 409.37 1191.29 409.37L1190.19 409.47C1189.3 409.57 1189.89 409.57 1187.21 409.57Z" fill="#231f20" opacity="1" stroke-width="4" stroke="none"></path><path d="M1176.06 379.02C1180.04 358.53 1158.55 358.73 1146.31 368.08 1143.62 367.38 1104.32 353.05 1101.24 352.06 1101.73 330.77 1115.17 313.45 1142.93 314.35 1187.21 315.94 1193.18 336.54 1191.88 384.3L1176.26 379.32C1176.16 379.22 1176.06 379.12 1176.06 379.02Z" fill="#ffc930" opacity="1" stroke-width="4" stroke="none"></path><path d="M1159.64 379.22L1152.78 384.1" stroke="#030202" stroke-width="4" stroke-linecap="round" stroke-linejoin="round" opacity="1" fill="none"></path><path d="M1255.96 599.82C1238.95 599.62 1218.05 596.44 1199.44 588.97 1199.35 588.97 1199.25 588.77 1199.25 588.67 1199.35 587.78 1199.54 585.59 1199.64 584.69 1199.64 584.5 1199.54 584.4 1199.35 584.4 1199.25 584.4 1105.42 584.4 1102.73 584.4H1102.63C1096.46 581.51 1090.39 574.25 1090.69 563.1 1090.69 562.9 1090.39 562.7 1090.29 562.9 1057.65 588.18 1013.18 572.75 976.26 553.75 976.16 553.65 976.06 553.55 976.06 553.45 976.96 548.28 993.08 498.53 994.67 492.56 994.67 492.36 994.97 492.06 995.07 492.06 1019.35 499.52 1042.03 509.67 1045.91 510.17 1046.01 510.17 1046.11 510.17 1046.21 510.07 1049.79 503.7 1087.9 442.71 1134.27 431.76 1134.37 431.76 1134.47 431.66 1134.47 431.46 1134.47 430.17 1134.37 423 1134.37 423 1134.37 422.8 1134.47 422.71 1134.67 422.71 1134.97 423 1187.5 422.41 1191.39 423.1 1191.48 423.1 1191.58 423.2 1191.58 423.4 1191.58 424.6 1191.58 431.76 1191.58 431.76 1191.58 431.86 1191.68 432.06 1191.88 432.06 1206.21 433.05 1220.14 436.34 1229.3 440.91 1271.38 458.53 1365.41 597.93 1255.96 599.82Z" fill="#61ccff" opacity="1" stroke-width="4" stroke="none"></path><path d="M1068.9 573.05C1085.71 556.54 1084.42 511.06 1097.65 511.76 1097.85 511.76 1097.95 511.96 1097.95 512.06 1097.06 517.93 1092.68 549.57 1090.29 562.9 1083.52 568.58 1073.57 572.36 1069.2 573.55 1068.9 573.55 1068.7 573.25 1068.9 573.05Z" fill="#686868" opacity="0.2" stroke-width="4" stroke="none"></path><path d="M1221.43 504.79L1239.05 538.43" stroke="#686868" stroke-width="4" stroke-linecap="round" stroke-linejoin="round" opacity="1" fill="none"></path><path d="M1134.47 431.76C1134.47 431.76 1129.69 432.56 1125.91 434.25" stroke="#686868" stroke-width="4" stroke-linecap="round" stroke-linejoin="round" opacity="1" fill="none"></path><path d="M1090.99 561.32L1097.95 511.67" stroke="#686868" stroke-width="4" stroke-linecap="round" stroke-linejoin="round" opacity="1" fill="none"></path><path d="M1046.11 510.07L1038.15 507.48" stroke="#686868" stroke-width="4" stroke-linecap="round" stroke-linejoin="round" opacity="1" fill="none"></path><path d="M1056.26 979.22L1070.09 986.19" stroke="#000000" stroke-width="4" stroke-linecap="round" stroke-linejoin="round" opacity="1" fill="none"></path><path d="M1194.27 979.92L1207.8 986.19" stroke="#000000" stroke-width="4" stroke-linecap="round" stroke-linejoin="round" opacity="1" fill="none"></path><path d="M1064.52 938.23L1152.68 938.43" stroke="#000000" stroke-width="4" stroke-linecap="round" stroke-linejoin="round" opacity="1" fill="none"></path><path d="M1196.46 938.43H1279.05" stroke="#000000" stroke-width="4" stroke-linecap="round" stroke-linejoin="round" opacity="1" fill="none"></path><path d="M1146.61 367.99L1084.32 346" stroke="#211800" stroke-width="4" stroke-linecap="round" stroke-linejoin="round" opacity="1" fill="none"></path><path d="M1211.88 535.64C1217.75 526.88 1210.29 507.28 1221.43 504.79 1223.03 507.58 1236.66 533.75 1238.85 538.03 1238.95 538.23 1238.75 538.43 1238.55 538.43 1235.07 538.13 1215.27 536.44 1211.98 536.14 1211.88 536.04 1211.78 535.84 1211.88 535.64Z" fill="#686868" opacity="0.2" stroke-width="4" stroke="none"></path><path d="M1134.37 417.34C1138.95 415.65 1142.43 414.46 1146.31 412.37 1146.61 412.27 1146.81 412.57 1146.71 412.76L1136.16 428.49C1135.66 429.18 1134.57 429.08 1134.57 428.19L1134.37 417.34Z" fill="#030202" opacity="0.2" stroke-width="4" stroke="none"></path><path d="M1013.48 1030.96C1013.28 1030.96 1013.18 1030.86 1013.18 1030.66 1013.18 1019.32 1017.85 1014.05 1018.95 1013.05 1019.05 1012.95 1019.15 1012.95 1019.25 1012.85 1024.72 1012.65 1141.24 1012.85 1141.34 1012.75 1141.53 1012.75 1141.63 1012.95 1141.63 1013.15 1140.84 1015.54 1138.55 1024.99 1136.66 1030.76 1136.66 1030.86 1136.56 1030.96 1136.36 1030.96 1130.89 1030.96 1013.48 1030.96 1013.48 1030.96Z" fill="#000000" opacity="1" stroke-width="4" stroke="none"></path><path d="M1152.48 1030.76C1152.38 1024.59 1153.08 1017.63 1157.16 1013.05 1157.26 1012.95 1157.26 1012.95 1157.36 1012.95 1161.63 1012.95 1275.37 1013.25 1275.37 1013.25 1275.56 1013.25 1275.66 1013.45 1275.66 1013.65 1273.18 1023.8 1271.98 1028.67 1270.69 1031.26 1270.69 1031.36 1270.59 1031.36 1270.49 1031.36 1262.73 1031.36 1162.63 1031.06 1152.78 1031.06 1152.58 1031.06 1152.48 1030.96 1152.48 1030.76Z" fill="#000000" opacity="1" stroke-width="4" stroke="none"></path><path d="M1175.17 585.8C1167.01 585.8 1158.85 583.81 1151.39 580.43 1142.33 580.72 1116.16 580.53 1116.56 575.25 1116.56 570.87 1129.2 569.18 1137.26 568.49 1137.55 568.49 1137.55 567.99 1137.26 567.89 1126.61 566.69 1105.22 564.11 1108.5 553.26 1104.62 550.58 1102.53 544.9 1108.4 540.53 1109.69 529.68 1128.6 532.67 1138.15 532.07 1145.42 532.07 1151.88 532.17 1154.47 532.27 1154.77 532.27 1154.87 531.97 1154.67 531.77 1152.28 529.58 1146.71 524.11 1147.5 520.63 1150.09 510.68 1195.37 535.75 1193.77 534.36 1193.77 534.36 1203.03 535.25 1204.72 535.45 1205.51 535.45 1200.44 583.71 1199.74 588.59 1199.74 588.78 1199.54 588.88 1199.35 588.78 1197.65 588.19 1189.99 585.2 1175.17 585.8Z" fill="#cf5934" opacity="1" stroke-width="4" stroke="none"></path><path d="M1108.6 540.52C1126.81 540.42 1159.64 543.4 1159.64 543.4" stroke="#030202" stroke-width="4" stroke-linecap="round" stroke-linejoin="round" opacity="1" fill="none"></path><path d="M1108.9 553.35L1158.65 557.33" stroke="#030202" stroke-width="4" stroke-linecap="round" stroke-linejoin="round" opacity="1" fill="none"></path><path d="M1155.17 532.36L1166.21 533.25" stroke="#030202" stroke-width="4" stroke-linecap="round" stroke-linejoin="round" opacity="1" fill="none"></path><path d="M927.7 497.33C931.49 500.62 932.48 504.5 925.81 508.58 931.49 512.75 931.09 518.72 927.21 521.91 929.2 525.29 929.69 527.98 928.7 529.97 927.6 532.16 925.12 532.75 924.32 532.95 927.8 538.43 926.91 542.9 921.83 543.6 920.44 543.4 919.15 543.2 917.85 542.9" stroke="#030202" stroke-width="4" stroke-linecap="round" stroke-linejoin="round" opacity="1" fill="none"></path><path d="M902.93 500.62C907.9 505.59 921.83 509.57 925.81 508.58" stroke="#030202" stroke-width="4" stroke-linecap="round" stroke-linejoin="round" opacity="1" fill="none"></path><path d="M902.93 516.54C910.89 520.52 922.83 522.51 926.81 521.51" stroke="#030202" stroke-width="4" stroke-linecap="round" stroke-linejoin="round" opacity="1" fill="none"></path><path d="M904.92 529.47C909.89 531.46 919.35 533.95 924.32 532.95" stroke="#030202" stroke-width="4" stroke-linecap="round" stroke-linejoin="round" opacity="1" fill="none"></path><path d="M1193.67 534.45L1239.05 538.43" stroke="#686868" stroke-width="4" stroke-linecap="round" stroke-linejoin="round" opacity="1" fill="none"></path><path d="M941.04 493.15L955.17 515.94" stroke="#030202" stroke-width="4" stroke-linecap="round" stroke-linejoin="round" opacity="1" fill="none"></path></g><g><path d="M482.1 720.84C479.29 703.81 463.12 692.21 446.09 695.02 429.06 697.82 417.46 713.99 420.27 731.03" stroke="#1c1c1c" stroke-width="4" stroke-linecap="round" stroke-linejoin="round" opacity="1" fill="none"></path><path d="M372.38 929.08C346.72 933.31 322.28 915.89 318.03 890.11L302.75 797.37C298.52 771.7 315.94 747.26 341.72 743.01L482.3 719.85C507.96 715.62 532.4 733.04 536.65 758.82L551.93 851.56C556.16 877.23 538.74 901.67 512.96 905.92L372.38 929.08Z" fill="#cb442e" opacity="1" stroke-width="4" stroke="none"></path><path d="M421.38 921.01C395.72 925.24 371.28 907.82 367.03 882.04L351.74 789.29C347.51 763.63 364.94 739.19 390.72 734.94L531.29 711.77C556.96 707.54 581.4 724.96 585.65 750.74L600.93 843.49C605.16 869.15 587.74 893.59 561.96 897.84L421.38 921.01Z" fill="#ff4f32" opacity="1" stroke-width="4" stroke="none"></path><path d="M430.85 843.96L401.03 833.17 428.97 822.34 430.81 783.33 452.81 812.18 475.99 796.5 471.88 822.46 505.77 837.6 474.97 848.43 484.25 874.22 456.48 857.71 425.47 885.47 430.85 843.96Z" fill="#ffc930" opacity="1" stroke-width="4" stroke="none"></path><path d="M524.84 805.7C540.44 803.13 550.99 788.41 548.42 772.82 545.85 757.23 531.13 746.67 515.54 749.24 499.95 751.81 489.39 766.53 491.96 782.12 494.53 797.72 509.25 808.27 524.84 805.7Z" fill="#ffffff" opacity="1" stroke-width="4" stroke="none"></path></g></svg>