<svg xmlns="http://www.w3.org/2000/svg" height="1200" width="1600" version="1.1" xmlns:xlink="http://www.w3.org/1999/xlink" xmlns:svgjs="http://svgjs.com/svgjs"><rect fill="#e9eef3" width="1600" height="1200"></rect><g><path d="M1039.16 234.79C1068.1 234.79 1091.56 211.33 1091.56 182.39 1091.56 153.46 1068.1 130 1039.16 130 1010.23 130 986.77 153.46 986.77 182.39 986.77 211.33 1010.23 234.79 1039.16 234.79Z" fill="#30a8ff" opacity="1" stroke-width="4" stroke="none"></path></g><g><path d="M1224.15 250.24V249.77C1224.15 249.62 1224.15 249.46 1224.15 249.22 1224.15 245.06 1223.6 240.89 1222.43 236.81 1216.93 217.72 1199.25 204.44 1179.45 204.44 1175.28 204.44 1171.2 204.99 1167.19 206.17 1159.81 195.4 1148.81 187.47 1136.24 183.85 1131.21 182.44 1126.02 181.65 1120.76 181.65 1095.93 181.65 1073.77 198.31 1066.86 222.2 1062.3 219.68 1057.12 218.42 1051.85 218.42 1034.33 218.42 1020.19 232.64 1020.19 250.09V250.24H1224.15Z" fill="#a0d1ff" opacity="1" stroke-width="4" stroke="none"></path><path d="M815.2 147.63V147.24C815.2 147.08 815.2 146.93 815.2 146.77 815.2 137.03 811.43 127.91 804.52 121.08 797.68 114.24 788.49 110.39 778.82 110.39 775.45 110.39 772.07 110.86 768.85 111.81 760.36 99.39 746.22 91.93 731.13 91.93 721.94 91.93 713.14 94.68 705.52 99.86 689.96 110.47 682.5 129.17 686.66 147.55V147.71L815.2 147.63Z" fill="#a0d1ff" opacity="1" stroke-width="4" stroke="none"></path><path d="M671.1 147.63V147.48C671.1 133.26 659.56 121.71 645.33 121.71 631.11 121.71 619.56 133.26 619.56 147.48V147.63H671.1Z" fill="#a0d1ff" opacity="1" stroke-width="4" stroke="none"></path><path d="M1503.39 177.49V177.33C1507.16 160.68 1500.4 143.63 1486.26 134.04 1479.35 129.33 1471.33 126.89 1463.01 126.89 1449.33 126.89 1436.53 133.65 1428.83 144.88 1425.92 144.02 1422.86 143.63 1419.79 143.63 1401.56 143.63 1386.79 158.48 1386.79 176.63 1386.79 176.78 1386.79 176.86 1386.79 177.02V177.41L1503.39 177.41V177.49Z" fill="#a0d1ff" opacity="1" stroke-width="4" stroke="none"></path></g><g><path d="M168.26 830.86L168.23 733.96 259.54 677.5 259.53 571.76 259.28 571.79 395.2 487.71 503.74 487.71 609.19 552.87C613.72 549.95 619 548.41 624.42 548.41H699.22C717.48 548.41 723.5 559.17 730.48 571.62 739.56 587.81 750.86 607.97 793.74 612.59L793.78 655.82 1030.63 655.78 1030.59 551.96 1098.29 483.09 1288.52 483.07 1356.23 551.94 1356.24 663.98 1423.91 732.78 1423.92 830.86H168.26V830.86Z" fill="#fffcfc" stroke-linejoin="round" opacity="1" stroke-width="4" stroke="none"></path><path d="M1468.78 830.84H1395.25C1395.25 810.55 1411.71 790.01 1432.02 790.01 1452.32 790.01 1468.78 810.55 1468.78 830.84Z" fill="#cecece" opacity="1" stroke-width="4" stroke="none"></path><path d="M1507.05 830.84H1452.43C1452.43 815.77 1464.67 800.51 1479.74 800.51 1494.81 800.51 1507.05 815.77 1507.05 830.84Z" fill="#cecece" stroke-linejoin="round" opacity="1" stroke-width="4" stroke="none"></path><path d="M530.56 571.78L394.6 487.77" stroke="#cecece" stroke-width="4" stroke-linecap="round" stroke-linejoin="round" opacity="1" fill="none"></path><path d="M260.22 571.78H530.85V829.57" stroke="#cecece" stroke-width="4" stroke-linecap="round" stroke-linejoin="round" opacity="1" fill="none"></path><path d="M255.45 830.05L256.72 678.81" stroke="#cecece" stroke-width="4" stroke-linecap="round" stroke-linejoin="round" opacity="1" fill="none"></path><path d="M168.91 733.99H255.15" stroke="#cecece" stroke-width="4" stroke-linecap="round" stroke-linejoin="round" opacity="1" fill="none"></path><path d="M256.91 715.9H528.8" stroke="#cecece" stroke-width="4" stroke-linecap="round" stroke-linejoin="round" opacity="1" fill="none"></path><path d="M1027.08 754.42H1219.63" stroke="#cecece" stroke-width="4" stroke-linecap="round" stroke-linejoin="round" opacity="1" fill="none"></path><path d="M530.56 571.78H594" stroke="#cecece" stroke-width="4" stroke-linecap="round" stroke-linejoin="round" opacity="1" fill="none"></path><path d="M1031.28 551.95H1220.22V829.57" stroke="#cecece" stroke-width="4" stroke-linecap="round" stroke-linejoin="round" opacity="1" fill="none"></path><path d="M1220.22 828.3V551.95H1353.03" stroke="#cecece" stroke-width="4" stroke-linecap="round" stroke-linejoin="round" opacity="1" fill="none"></path><path d="M719.6 614.96H791.85" stroke="#cecece" stroke-width="4" stroke-linecap="round" stroke-linejoin="round" opacity="1" fill="none"></path><path d="M1287.9 829.57V732.83H1421.26" stroke="#cecece" stroke-width="4" stroke-linecap="round" stroke-linejoin="round" opacity="1" fill="none"></path><path d="M1287.16 483.85L1220.22 551.95" stroke="#cecece" stroke-width="4" stroke-linecap="round" stroke-linejoin="round" opacity="1" fill="none"></path><path d="M1220.22 663.98L1287.9 732.83" stroke="#cecece" stroke-width="4" stroke-linecap="round" stroke-linejoin="round" opacity="1" fill="none"></path><path d="M1353.62 661.06H1220.8" stroke="#cecece" stroke-width="4" stroke-linecap="round" stroke-linejoin="round" opacity="1" fill="none"></path><path d="M625.34 550.78C583.33 550.78 606.67 606.79 530.81 614.96H719.89C644 606.8 667.34 550.78 625.34 550.78Z" stroke="#cecece" stroke-width="4" stroke-linecap="round" stroke-linejoin="round" opacity="1" fill="none"></path><path d="M530.81 828.3V614.97H719.85V829.57" stroke="#cecece" stroke-width="4" stroke-linecap="round" stroke-linejoin="round" opacity="1" fill="none"></path><path d="M719.6 828.3V676.81H1027.09V829.57" stroke="#cecece" stroke-width="4" stroke-linecap="round" stroke-linejoin="round" opacity="1" fill="none"></path><path d="M719.92 676.21L793.65 655.32" stroke="#cecece" stroke-width="4" stroke-linecap="round" stroke-linejoin="round" opacity="1" fill="none"></path><path d="M1027.09 657.08V676.81H719.6" stroke="#cecece" stroke-width="4" stroke-linecap="round" stroke-linejoin="round" opacity="1" fill="none"></path><path d="M759.81 830.89L759.77 732.65C759.77 721.14 769.13 711.79 780.63 711.79H780.99C792.5 711.79 801.85 721.14 801.85 732.65V830.89H759.81Z" fill="#cecece" opacity="1" stroke-width="4" stroke="none"></path><path d="M947.74 830.89L947.7 732.65C947.7 721.14 957.06 711.79 968.56 711.79H968.92C980.43 711.79 989.78 721.14 989.78 732.65V830.89H947.74Z" fill="#cecece" opacity="1" stroke-width="4" stroke="none"></path><path d="M853.8 830.89L853.76 732.65C853.76 721.14 863.12 711.79 874.62 711.79H874.98C886.49 711.79 895.84 721.14 895.84 732.65V830.89H853.8Z" fill="#cecece" opacity="1" stroke-width="4" stroke="none"></path><path d="M1336.92 830.88L1336.88 780.49C1336.88 768.98 1346.23 759.62 1357.74 759.62H1358.1C1369.6 759.62 1378.96 768.98 1378.96 780.49V830.88H1336.92Z" fill="#cecece" opacity="1" stroke-width="4" stroke="none"></path><path d="M293.93 830.88L293.89 780.49C293.89 768.98 303.24 759.62 314.75 759.62H315.11C326.61 759.62 335.97 768.98 335.97 780.49V830.88H293.93Z" fill="#cecece" opacity="1" stroke-width="4" stroke="none"></path><path d="M453.85 830.88L453.82 780.49C453.82 768.99 463.16 759.64 474.65 759.62H475.01C486.53 759.62 495.88 768.97 495.9 780.46V830.88H453.85V830.88Z" fill="#cecece" opacity="1" stroke-width="4" stroke="none"></path><path d="M373.89 830.88L373.85 780.49C373.85 768.98 383.21 759.62 394.71 759.62H395.07C406.58 759.62 415.93 768.98 415.93 780.49V830.88H373.89Z" fill="#cecece" opacity="1" stroke-width="4" stroke="none"></path><path d="M293.95 680.35L293.91 609.13 335.96 609.09 336 680.35H293.95Z" fill="#cecece" opacity="1" stroke-width="4" stroke="none"></path><path d="M453.83 680.35L453.79 609.13 495.83 609.09 495.87 680.35H453.83Z" fill="#cecece" opacity="1" stroke-width="4" stroke="none"></path><path d="M373.89 680.35L373.85 609.13 415.9 609.09 415.93 680.35H373.89Z" fill="#cecece" opacity="1" stroke-width="4" stroke="none"></path><path d="M574.66 703.68L574.63 651.13 609.57 651.1 609.61 703.68H574.66Z" fill="#cecece" opacity="1" stroke-width="4" stroke="none"></path><path d="M641.08 703.68L641.05 651.13 675.99 651.1 676.03 703.68H641.08Z" fill="#cecece" opacity="1" stroke-width="4" stroke="none"></path><path d="M574.66 795.88L574.63 743.33 609.57 743.29 609.61 795.88H574.66Z" fill="#cecece" opacity="1" stroke-width="4" stroke="none"></path><path d="M641.08 795.88L641.05 743.33 675.99 743.29 676.03 795.88H641.08Z" fill="#cecece" opacity="1" stroke-width="4" stroke="none"></path><path d="M1072.95 633.67L1072.92 581.12 1107.86 581.09 1107.9 633.67H1072.95Z" fill="#cecece" opacity="1" stroke-width="4" stroke="none"></path><path d="M1139.37 633.67L1139.34 581.12 1174.28 581.09 1174.32 633.67H1139.37Z" fill="#cecece" opacity="1" stroke-width="4" stroke="none"></path><path d="M1273.58 633.67L1273.54 581.12 1308.48 581.09 1308.52 633.67H1273.58Z" fill="#cecece" opacity="1" stroke-width="4" stroke="none"></path><path d="M1072.95 725.85L1072.92 673.31 1107.86 673.27 1107.9 725.85H1072.95Z" fill="#cecece" opacity="1" stroke-width="4" stroke="none"></path><path d="M1139.37 725.85L1139.34 673.31 1174.28 673.27 1174.32 725.85H1139.37Z" fill="#cecece" opacity="1" stroke-width="4" stroke="none"></path><path d="M131.22 830.84H204.75C204.75 810.55 188.29 790.01 167.98 790.01 147.68 790.01 131.22 810.55 131.22 830.84Z" fill="#cecece" opacity="1" stroke-width="4" stroke="none"></path><path d="M92.95 830.84H147.57C147.57 815.77 135.33 800.51 120.26 800.51 105.19 800.51 92.95 815.77 92.95 830.84Z" fill="#cecece" stroke-linejoin="round" opacity="1" stroke-width="4" stroke="none"></path></g><g><path d="M428.13 405.63H376.86V905.09H428.13V405.63Z" fill="#5b2c39" opacity="1" stroke-width="4" stroke="none"></path><path d="M376.86 402.45H428.13V513.76L376.86 481.33V402.45Z" fill="#000000" opacity="0.3" stroke-width="4" stroke="none"></path><path d="M523.89 390.4L438.32 241.29C422.33 213.46 382.23 213.46 366.34 241.29L281.22 389.63C263.8 419.98 284.62 458.76 319.67 459.64 336.55 460.08 352.21 451.31 360.76 436.85 370.07 450.76 385.63 459.09 402.28 458.98 418.93 458.98 434.6 450.65 443.8 436.85 452.13 450.98 467.25 459.64 483.68 459.64 519.29 459.64 541.64 421.18 523.89 390.4Z" fill="#30a8ff" opacity="1" stroke-width="4" stroke="none"></path><path d="M509.43 365.2L438.32 241.29C422.33 213.46 382.23 213.46 366.34 241.29L308.06 342.74C311.89 344.6 316.17 346.03 320.77 346.79 337.42 349.53 354.18 343.07 364.59 329.81 371.93 344.82 386.17 355.23 402.72 357.42 419.26 359.72 435.8 353.59 446.87 341.1 453.22 356.22 467.03 366.84 483.24 369.14 492.88 370.46 501.76 368.92 509.43 365.2Z" fill="#868788" opacity="0.3" stroke-width="4" stroke="none"></path><path d="M504.61 256.41L432.63 130.97C422.99 114.21 401.73 108.51 384.97 118.04 379.6 121.11 375.11 125.6 372.04 130.97L300.39 255.75C285.71 281.28 303.24 313.93 332.71 314.69 346.84 315.13 360.1 307.68 367.33 295.52 375.11 307.24 388.26 314.15 402.28 314.15 416.3 314.15 429.45 307.13 437.23 295.52 444.24 307.35 456.95 314.69 470.75 314.69 500.77 314.69 519.5 282.37 504.61 256.41Z" fill="#30a8ff" opacity="1" stroke-width="4" stroke="none"></path><path d="M322.3 312.94C339.5 318.2 358.13 310.97 367.33 295.52 375.11 307.24 388.26 314.15 402.28 314.15 416.3 314.15 429.45 307.13 437.23 295.52 444.24 307.35 456.95 314.69 470.75 314.69 473.82 314.69 476.78 314.37 479.74 313.71" stroke="#505050" stroke-width="4" stroke-linecap="round" stroke-linejoin="round" opacity="1" fill="none"></path></g><g><path d="M1353.22 558.83H1405.79V905.69H1353.22V558.83Z" fill="#5b2c39" opacity="1" stroke-width="4" stroke="none"></path><path d="M1405.79 558.83H1353.22V662.24L1405.79 684.54V558.83Z" fill="#000000" opacity="0.3" stroke-width="4" stroke="none"></path><path d="M1260.15 578.33L1344.28 431.72C1360.01 404.36 1399.44 404.36 1415.06 431.72L1498.75 577.57C1515.88 607.41 1495.42 645.54 1460.94 646.41 1444.36 646.84 1428.95 638.22 1420.55 624 1411.39 637.68 1396.1 645.87 1379.72 645.76 1363.35 645.76 1347.95 637.57 1338.9 624 1330.71 637.9 1315.85 646.41 1299.69 646.41 1264.68 646.51 1242.81 608.7 1260.15 578.33Z" fill="#a0d1ff" opacity="1" stroke-width="4" stroke="none"></path><path d="M1344.28 431.83C1360.01 404.47 1399.44 404.47 1415.06 431.83L1485.94 555.27C1477.75 560.45 1467.62 563.14 1456.74 561.85 1440.26 559.91 1426.26 549.13 1420.01 533.73 1409.02 545.9 1392.65 551.72 1376.38 549.24 1360.12 546.87 1346.22 536.53 1339.11 521.67 1328.99 534.16 1312.94 540.41 1297 538.15 1292.69 537.5 1288.7 536.32 1285.04 534.7L1344.28 431.83Z" fill="#7fa9d0" opacity="0.3" stroke-width="4" stroke="none"></path><path d="M1279.1 446.59L1349.87 323.25C1359.35 306.76 1380.25 301.16 1396.73 310.54 1402.01 313.55 1406.43 317.97 1409.44 323.25L1479.89 445.94C1494.33 471.04 1477.09 503.14 1448.12 503.89 1434.22 504.32 1421.19 497 1414.08 485.04 1406.43 496.57 1393.5 503.35 1379.71 503.35 1365.92 503.35 1353 496.46 1345.35 485.04 1338.46 496.68 1325.96 503.89 1312.39 503.89 1282.87 503.89 1264.45 472.11 1279.1 446.59Z" fill="#a0d1ff" opacity="1" stroke-width="4" stroke="none"></path><path d="M1456.31 502.82C1439.83 506.8 1422.7 499.58 1414.09 485.04 1406.44 496.57 1393.51 503.35 1379.72 503.35 1365.94 503.35 1353.01 496.46 1345.36 485.04 1338.47 496.68 1325.97 503.89 1312.4 503.89 1309.38 503.89 1306.47 503.57 1303.57 502.92" stroke="#7fa9d0" stroke-width="4" stroke-linecap="round" stroke-linejoin="round" opacity="1" fill="none"></path></g><g><path d="M259.14 603.14H206.8V903.84H259.14V603.14Z" fill="#5b2c39" opacity="1" stroke-width="4" stroke="none"></path><path d="M259.14 614.59H206.8V759.43C214.47 764.37 223.4 767.2 232.76 767.2 242.32 767.2 251.47 764.37 259.14 759.22V614.59Z" fill="#000000" opacity="0.3" stroke-width="4" stroke="none"></path><path d="M348.27 668.93L267.02 527.36C251.89 500.98 213.74 500.98 198.6 527.36L117.78 668.2C101.17 697.1 121.03 733.89 154.25 734.73 170.22 735.15 185.25 726.84 193.35 713.07 202.17 726.21 216.99 734.2 232.86 734.1 248.73 734.1 263.55 726.21 272.38 713.07 280.27 726.53 294.66 734.73 310.22 734.73 343.96 734.73 365.08 698.26 348.27 668.93Z" fill="#a0d1ff" opacity="1" stroke-width="4" stroke="none"></path><path d="M193.35 614.38C202.17 627.52 216.99 635.51 232.86 635.4 248.73 635.4 263.55 627.52 272.38 614.38 280.27 627.84 294.66 636.03 310.22 636.03 316.42 636.03 322.31 634.77 327.46 632.57L267.02 527.25C251.89 500.87 213.74 500.87 198.6 527.25L138.17 632.46C143 634.56 148.36 635.82 154.25 636.03 170.22 636.56 185.15 628.26 193.35 614.38Z" fill="#bebfc0" opacity="0.3" stroke-width="4" stroke="none"></path><path d="M329.98 541.65L261.56 422.57C252.41 406.7 232.13 401.23 216.26 410.27 211.21 413.22 206.9 417.42 203.96 422.57L135.96 541.02C121.98 565.3 138.69 596.2 166.65 597.04 180.1 597.36 192.71 590.42 199.55 578.86 207.01 589.89 219.41 596.62 232.76 596.52 246.11 596.52 258.61 589.89 265.97 578.86 272.59 590.1 284.79 597.04 297.82 597.04 326.3 597.04 344.17 566.35 329.98 541.65Z" fill="#a0d1ff" opacity="1" stroke-width="4" stroke="none"></path><path d="M159.19 595.99C174.95 599.77 191.35 592.73 199.65 578.75 207.11 589.79 219.52 596.51 232.86 596.41 246.21 596.41 258.72 589.79 266.08 578.75 272.7 590 284.89 596.93 297.92 596.93 300.76 596.93 303.7 596.62 306.44 595.99" stroke="#888888" stroke-width="4" stroke-linecap="round" stroke-linejoin="round" opacity="1" fill="none"></path></g><g><path d="M1438.36 905.57C1438.36 905.57 1432.7 792.96 1326.07 797.1 1326.07 797.1 1304.2 737.37 1235.77 737.37 1149.6 737.37 1129.03 833.33 1129.03 833.33 1129.03 833.33 1060.6 829.2 1052.44 905.57H1438.36Z" fill="#30a8ff" opacity="1" stroke-width="4" stroke="none"></path><path d="M1365.89 801.78C1323.13 848.02 1269.71 819.08 1269.71 819.08 1269.71 819.08 1204.32 905.9 1117.72 865.64 1104.99 859.77 1094.87 852.48 1086.71 844.65 1070.93 854.44 1056.03 872.39 1052.54 905.57H1438.36C1438.36 905.57 1434.22 822.78 1365.89 801.78Z" fill="#868788" opacity="0.3" stroke-width="4" stroke="none"></path><path d="M1326.07 797.1C1281.68 800.47 1266.45 838.55 1266.45 838.55" stroke="#505050" stroke-width="4" stroke-linecap="round" stroke-linejoin="round" opacity="1" fill="none"></path><path d="M1129.03 833.33C1156.56 833.22 1173.97 856.07 1176.14 865.86" stroke="#505050" stroke-width="4" stroke-linecap="round" stroke-linejoin="round" opacity="1" fill="none"></path></g><g><path d="M144.14 906.11C144.83 860.49 178.32 827 226.83 832.77 226.83 832.77 233.64 784.85 282.26 801.59 282.26 801.59 304.2 743.16 364.25 742.69 427.54 742.12 455.26 794.08 457.22 824.34 457.22 824.34 547.64 811.41 555.73 906.11H144.14Z" fill="#30a8ff" opacity="1" stroke-width="4" stroke="none"></path><path d="M457.22 824.34C456.87 819.38 455.83 813.83 454.1 807.94 394.51 848.02 325.68 807.83 325.68 807.83 306.74 846.86 241.95 900.79 158.34 865.92 157.42 865.45 156.38 865.11 155.46 864.65 148.3 876.31 144.25 890.4 144.02 905.99H555.73C547.64 811.41 457.22 824.34 457.22 824.34Z" fill="#868788" opacity="0.3" stroke-width="4" stroke="none"></path><path d="M457.22 824.35C441.4 827.59 425.92 840.64 422.11 850.91" stroke="#505050" stroke-width="4" stroke-linecap="round" stroke-linejoin="round" opacity="1" fill="none"></path><path d="M282.14 801.59C279.26 808.4 277.18 815.68 276.25 822.96" stroke="#505050" stroke-width="4" stroke-linecap="round" stroke-linejoin="round" opacity="1" fill="none"></path><path d="M226.71 832.77C245.07 834.5 254.31 846.05 254.31 846.05" stroke="#505050" stroke-width="4" stroke-linecap="round" stroke-linejoin="round" opacity="1" fill="none"></path><path d="M351.99 853.7C372.21 849.44 385.68 832.11 382.07 815.01 378.47 797.92 359.15 787.51 338.93 791.77 318.71 796.04 305.24 813.36 308.84 830.46 312.46 847.55 331.77 857.96 351.99 853.7Z" fill="#a0d1ff" opacity="1" stroke-width="4" stroke="none"></path><path d="M346.95 829.85C351.57 828.88 354.64 824.91 353.81 820.97 352.99 817.04 348.57 814.64 343.95 815.62 339.34 816.59 336.27 820.57 337.09 824.5 337.92 828.43 342.35 830.83 346.95 829.85Z" fill="#47525c" opacity="1" stroke-width="4" stroke="none"></path></g><g><path d="M826.01 921.52C830.51 906.81 836.11 891.7 841.41 877.1 852.71 846.19 863.32 816.98 865.02 793.37 866.32 774.26 857.02 746.05 839.51 715.84 824.31 689.64 805.5 666.83 792.89 659.12 792.69 659.02 772.19 646.82 748.18 634.82 725.97 623.71 696.16 610.51 680.16 610.51 675.15 610.51 671.65 611.81 669.85 614.31 667.85 617.11 667.75 621.51 669.65 627.41 677.45 651.22 707.16 695.34 730.87 728.25 755.18 762.16 778.19 791.37 780.59 794.37 780.69 794.47 780.69 794.57 780.59 794.67 779.59 796.57 773.39 808.68 765.99 828.58 758.48 848.69 748.08 881.1 740.98 921.42V921.62L826.01 921.52Z" fill="#a0d1ff" opacity="1" stroke-width="4" stroke="none"></path><path d="M779.99 954.42C783.19 946.61 790.69 941.51 799.1 941.51L820.4 941.51 820.6 940.81C822.1 934.61 823.8 928.31 826.01 921.31L826.41 919.9 741.38 919.9C741.28 919.9 741.18 920 741.08 920.1L740.88 921.2C739.08 931.41 737.58 941.81 736.37 952.22V952.42H755.78C761.38 952.42 766.09 956.72 766.49 962.32L768.19 982.73 768.59 982.83 779.99 954.42Z" fill="#cf5934" opacity="1" stroke-width="4" stroke="none"></path><path d="M851.81 1003.34C852.01 1003.24 852.11 1003.04 852.01 1002.94 850.81 1001.14 849.51 999.64 848.01 998.34 845.51 996.04 841.61 993.74 837.61 991.34 827.41 985.24 814.7 977.53 816.1 965.53 817.1 957.53 818.6 948.82 820.6 940.92L820.7 940.22 799.2 941.32C790.59 941.32 782.89 946.52 779.69 954.53L769.29 980.24C769.09 980.74 768.39 980.64 768.29 980.14L766.89 962.63C766.39 956.93 761.48 952.43 755.78 952.43L736.67 951.33C736.57 951.33 736.47 951.43 736.47 951.53L736.07 955.03C734.07 971.93 733.17 985.44 732.77 1002.24 732.77 1002.34 732.87 1002.44 732.87 1002.54L735.87 1004.34H735.97L832.71 1009.45H832.81L851.81 1003.34Z" fill="#5b2c39" opacity="1" stroke-width="4" stroke="none"></path><path d="M855.02 1019.35C855.12 1019.35 855.32 1019.25 855.32 1019.15 856.22 1013.65 855.22 1007.94 852.21 1003.24L733.07 1002.34C732.87 1002.34 732.77 1002.44 732.77 1002.64 732.77 1004.44 732.47 1014.15 732.57 1019.15 732.57 1019.35 732.67 1019.45 732.87 1019.45L855.02 1019.45V1019.35Z" fill="#282828" opacity="1" stroke-width="4" stroke="none"></path><path d="M816 968.13L801.9 972.83" stroke="#030202" stroke-width="4" stroke-linecap="round" stroke-linejoin="round" opacity="1" fill="none"></path><path d="M819 976.73L808.4 987.24" stroke="#030202" stroke-width="4" stroke-linecap="round" stroke-linejoin="round" opacity="1" fill="none"></path><path d="M734.77 833.28C673.15 756.26 560.81 743.75 483.79 805.28 465.58 819.78 450.38 837.79 439.07 858.19" stroke="#000000" stroke-width="4" stroke-linecap="round" stroke-linejoin="round" opacity="1" fill="none"></path><path d="M683.96 833.18L506.6 1056.46" stroke="#000000" stroke-width="4" stroke-linecap="round" stroke-linejoin="round" opacity="1" fill="none"></path><path d="M706.96 1033.45L483.69 856.19" stroke="#000000" stroke-width="4" stroke-linecap="round" stroke-linejoin="round" opacity="1" fill="none"></path><path d="M736.88 928.62L453.68 961.03" stroke="#000000" stroke-width="4" stroke-linecap="round" stroke-linejoin="round" opacity="1" fill="none"></path><path d="M611.53 1086.47L579.02 803.17" stroke="#000000" stroke-width="4" stroke-linecap="round" stroke-linejoin="round" opacity="1" fill="none"></path><path d="M504.9 904.61C511.4 904.61 519.9 899.21 526.5 890.8 535.51 879.5 538.01 866.5 532.2 861.79 530.8 860.69 529 860.09 526.9 860.09 520.4 860.09 511.9 865.5 505.3 873.9 496.29 885.2 493.79 898.21 499.59 902.91 500.99 904.01 502.79 904.61 504.9 904.61Z" fill="#5b2c39" opacity="1" stroke-width="4" stroke="none"></path><path d="M595.33 1104.58C683.36 1104.58 754.98 1032.95 755.08 944.92 755.08 902.21 738.48 862.09 708.37 831.88 678.25 801.67 638.14 785.07 595.43 785.07H595.03C546.11 785.07 500.59 807.08 470.28 845.49 447.98 873.6 435.67 908.81 435.67 944.72 435.67 987.44 452.28 1027.55 482.39 1057.76 512.4 1087.87 552.51 1104.58 595.33 1104.58ZM595.53 810.48C625.74 810.48 655.25 820.78 678.86 839.59 711.17 865.3 729.67 903.61 729.67 944.92 729.57 1018.95 669.35 1079.17 595.33 1079.17H595.23C559.31 1079.17 525.6 1065.16 500.29 1039.76 474.98 1014.35 460.98 980.64 460.98 944.72 461.08 870.7 521.3 810.48 595.33 810.48H595.53Z" fill="#5b2c39" opacity="1" stroke-width="4" stroke="none"></path><path d="M594.83 977.53C576.48 977.53 561.61 962.66 561.61 944.32 561.61 925.98 576.48 911.11 594.83 911.11 613.17 911.11 628.04 925.98 628.04 944.32 628.04 962.66 613.17 977.53 594.83 977.53Z" fill="#0f0c10" opacity="1" stroke-width="4" stroke="none"></path><path d="M1234.45 880.1L980.46 1009.55" stroke="#000000" stroke-width="4" stroke-linecap="round" stroke-linejoin="round" opacity="1" fill="none"></path><path d="M1172.22 1071.87L1042.78 817.78" stroke="#000000" stroke-width="4" stroke-linecap="round" stroke-linejoin="round" opacity="1" fill="none"></path><path d="M1243.05 988.84L971.86 900.81" stroke="#000000" stroke-width="4" stroke-linecap="round" stroke-linejoin="round" opacity="1" fill="none"></path><path d="M1063.39 1080.37L1151.52 809.28" stroke="#000000" stroke-width="4" stroke-linecap="round" stroke-linejoin="round" opacity="1" fill="none"></path><path d="M1140.91 1052.06C1146.42 1052.06 1152.92 1050.36 1159.02 1047.16 1165.22 1043.96 1170.42 1039.76 1173.73 1035.25 1177.03 1030.75 1177.93 1026.45 1176.23 1023.15 1174.53 1019.85 1170.52 1018.05 1164.82 1018.05 1159.32 1018.05 1152.82 1019.75 1146.72 1022.95 1133.81 1029.55 1126.11 1040.26 1129.51 1046.96 1131.21 1050.26 1135.21 1052.06 1140.91 1052.06Z" fill="#5b2c39" opacity="1" stroke-width="4" stroke="none"></path><path d="M1107.8 1104.68C1195.93 1104.58 1267.56 1032.75 1267.46 944.62 1267.36 856.59 1195.63 784.97 1107.6 784.97H1107.4C1082.39 784.97 1057.29 791.07 1034.98 802.37 1008.67 815.78 986.66 836.19 971.26 861.39 955.85 886.6 947.75 915.51 947.75 945.02 947.85 1033.05 1019.57 1104.68 1107.6 1104.68 1107.5 1104.68 1107.8 1104.68 1107.8 1104.68ZM1107.3 810.48C1131.71 810.48 1155.72 817.18 1176.73 829.68 1196.53 841.59 1212.94 858.49 1224.34 878.6 1235.75 898.71 1241.75 921.52 1241.75 944.62 1241.85 1018.75 1181.63 1079.07 1107.5 1079.17 1083.09 1079.17 1059.09 1072.47 1038.08 1059.96 1018.27 1048.06 1001.87 1031.15 990.46 1011.05 979.06 990.94 973.06 968.13 973.06 945.02 973.06 909.11 986.96 875.4 1012.27 849.99 1037.68 824.48 1071.49 810.48 1107.3 810.48Z" fill="#5b2c39" opacity="1" stroke-width="4" stroke="none"></path><path d="M1107 978.53C1125.31 978.53 1140.21 963.63 1140.21 945.32 1140.21 927.02 1125.31 912.11 1107 912.11 1088.7 912.11 1073.79 927.02 1073.79 945.32 1073.79 963.63 1088.7 978.53 1107 978.53Z" fill="#0f0c10" opacity="1" stroke-width="4" stroke="none"></path><path d="M1143.41 769.86C1046.68 750.06 952.25 812.48 932.54 909.11 930.14 920.81 928.94 932.82 928.94 944.82" stroke="#000000" stroke-width="4" stroke-linecap="round" stroke-linejoin="round" opacity="1" fill="none"></path><path d="M595.33 957.53C599.13 957.53 602.73 955.83 605.23 952.83L753.28 769.76C757.68 764.26 756.88 756.26 751.38 751.86 749.08 750.06 746.28 749.06 743.38 749.06 739.48 749.06 735.87 750.76 733.47 753.76L585.42 936.82C583.62 939.12 582.62 941.92 582.62 944.82 582.62 948.22 583.92 951.43 586.32 953.83 588.72 956.23 591.93 957.53 595.33 957.53Z" fill="#b376dd" opacity="1" stroke-width="4" stroke="none"></path><path d="M753.18 769.76C755.28 767.16 756.28 763.76 755.98 760.46 755.68 757.16 753.98 754.06 751.38 751.96 749.08 750.16 746.28 749.16 743.38 749.16 739.48 749.16 735.77 750.86 733.37 753.86L714.47 777.27 736.57 790.47 753.18 769.76Z" fill="#0f0c10" opacity="0.2" stroke-width="4" stroke="none"></path><path d="M809.4 949.32V949.52C812.9 949.52 816.3 948.02 818.7 945.42L1021.67 726.85C1026.47 721.75 1026.17 713.64 1020.97 708.94 1018.57 706.74 1015.57 705.54 1012.37 705.54 1008.87 705.54 1005.47 707.04 1003.07 709.64L814.3 912.91 740.28 706.54C738.48 701.54 733.67 698.14 728.27 698.14 726.77 698.14 725.37 698.44 723.97 698.84 717.37 701.24 713.97 708.44 716.27 715.04L797.3 941.12C799.1 946.12 803.9 949.52 809.3 949.52L809.4 949.32Z" fill="#b376dd" opacity="1" stroke-width="4" stroke="none"></path><path d="M1021.67 726.85C1026.47 721.75 1026.17 713.64 1020.97 708.94 1018.57 706.74 1015.57 705.54 1012.37 705.54 1008.87 705.54 1005.47 707.04 1003.07 709.64L985.76 728.25 988.36 762.76 1021.67 726.85Z" fill="#0f0c10" opacity="0.2" stroke-width="4" stroke="none"></path><path d="M716.27 715.04C713.97 708.44 717.37 701.24 723.97 698.84 725.37 698.44 726.77 698.14 728.27 698.14 733.67 698.14 738.48 701.54 740.28 706.54L745.08 719.85 724.17 736.95 716.27 715.04Z" fill="#0f0c10" opacity="0.2" stroke-width="4" stroke="none"></path><path d="M705.26 721.75C707.46 721.75 709.87 721.65 712.17 721.35 738.38 718.05 763.18 706.04 781.99 687.53 783.99 685.63 785.09 682.93 785.09 680.23 785.09 674.63 780.49 670.03 774.89 670.03H674.85C672.45 670.03 670.05 670.63 667.95 671.63 664.35 673.43 661.65 676.53 660.45 680.43 659.15 684.23 659.55 688.33 661.35 691.94 671.35 711.44 686.46 721.75 705.26 721.75Z" fill="#5b2c39" opacity="1" stroke-width="4" stroke="none"></path><path d="M674.35 741.75L506.7 741.75C496.29 741.75 485.99 739.75 476.29 735.95L455.28 727.75" stroke="#000000" stroke-width="4" stroke-linecap="round" stroke-linejoin="round" opacity="1" fill="none"></path><path d="M856.92 979.03C858.42 974.23 859.12 969.33 859.12 964.33 859.12 936.62 836.61 914.11 808.9 914.11 793.69 914.11 774.99 914.01 756.98 913.91 738.78 913.81 721.57 913.71 707.46 913.71 691.26 913.71 682.16 913.81 678.86 914.11 656.45 916.11 655.85 938.02 655.65 946.32V946.52L856.92 979.03Z" fill="#0f0c10" opacity="1" stroke-width="4" stroke="none"></path><path d="M808.9 991.54C793.87 991.54 781.69 979.35 781.69 964.33 781.69 949.29 793.87 937.12 808.9 937.12 823.93 937.12 836.11 949.29 836.11 964.33 836.11 979.35 823.93 991.54 808.9 991.54Z" fill="#5b2c39" opacity="1" stroke-width="4" stroke="none"></path><path d="M808.9 973.53C803.82 973.53 799.7 969.41 799.7 964.33 799.7 959.25 803.82 955.13 808.9 955.13 813.98 955.13 818.1 959.25 818.1 964.33 818.1 969.41 813.98 973.53 808.9 973.53Z" fill="#0f0c10" opacity="1" stroke-width="4" stroke="none"></path><path d="M766.89 1034.55H801.4C805.5 1034.55 808.9 1031.15 808.9 1027.05V1026.65C808.9 1022.55 805.5 1019.15 801.4 1019.15H766.89C762.78 1019.15 759.38 1022.55 759.38 1026.65V1027.05C759.38 1031.15 762.68 1034.55 766.89 1034.55Z" fill="#0f0c10" opacity="1" stroke-width="4" stroke="none"></path><path d="M817.9 901.91H852.41C856.52 901.91 859.92 898.51 859.92 894.41V894.01C859.92 889.9 856.52 886.5 852.41 886.5H817.9C813.8 886.5 810.4 889.9 810.4 894.01V894.41C810.4 898.51 813.7 901.91 817.9 901.91Z" fill="#0f0c10" opacity="1" stroke-width="4" stroke="none"></path><path d="M832.11 901.9L789.19 1019.14" stroke="#000000" stroke-width="4" stroke-linecap="round" stroke-linejoin="round" opacity="1" fill="none"></path><path d="M1020.47 747.06C1021.87 747.06 1023.17 746.55 1024.17 745.55 1025.17 744.55 1025.67 743.25 1025.67 741.85 1025.67 741.25 1025.57 740.75 1025.37 740.15L1004.87 679.33C1000.57 666.43 1003.57 652.22 1012.77 642.22L1031.28 622.01C1038.38 614.21 1037.88 602.11 1030.18 595 1026.67 591.7 1022.07 590 1017.27 590H951.95C949.05 590 946.75 592.3 946.75 595.2 946.75 598.1 949.05 600.4 951.95 600.4H1017.27C1022.07 600.4 1025.97 604.31 1025.97 609.11 1025.97 611.31 1025.17 613.41 1023.67 615.01L1005.17 635.22C993.36 648.02 989.56 666.23 995.06 682.73L1015.57 743.55C1016.27 745.65 1018.27 747.06 1020.47 747.06Z" fill="#0f0c10" opacity="1" stroke-width="4" stroke="none"></path><path d="M1107.5 957.53C1109.9 957.53 1112.3 956.83 1114.41 955.53 1114.61 955.43 1114.81 955.23 1115.01 955.13 1120.41 951.03 1121.81 943.32 1118.01 937.72L1099 908.21C1085.8 887.7 1075.09 865.6 1067.39 842.39L1016.27 689.94C1015.67 688.23 1014.07 687.13 1012.27 687.13H994.26C991.96 687.13 990.06 689.04 990.06 691.34 990.06 691.84 990.16 692.24 990.26 692.64L1043.18 850.59C1051.58 875.7 1063.19 899.81 1077.59 922.12L1096.8 951.93C1099.1 955.33 1103.1 957.53 1107.5 957.53Z" fill="#b376dd" opacity="1" stroke-width="4" stroke="none"></path><path d="M1143.11 750.46L1164.22 678.03H1048.78V750.46H1143.11Z" fill="#5b2c39" opacity="1" stroke-width="4" stroke="none"></path><path d="M1048.78 726.45C1049.08 726.45 1091.5 719.65 1095.2 678.03H1048.78C1048.88 678.03 1048.78 690.04 1048.78 702.24 1048.78 714.04 1048.78 726.05 1048.78 726.45Z" fill="#000000" opacity="0.2" stroke-width="4" stroke="none"></path><path d="M1078.29 750.26L1088.3 678.23" stroke="#000000" stroke-width="4" stroke-linecap="round" stroke-linejoin="round" opacity="1" fill="none"></path><path d="M1115.61 750.26L1134.01 678.23" stroke="#000000" stroke-width="4" stroke-linecap="round" stroke-linejoin="round" opacity="1" fill="none"></path><path d="M1048.98 716.24H1153.02" stroke="#000000" stroke-width="4" stroke-linecap="round" stroke-linejoin="round" opacity="1" fill="none"></path><path d="M1089.1 568.09C1095.7 582.6 1101.2 597.7 1105.5 613.01" stroke="#0f0c10" stroke-width="4" stroke-linecap="round" stroke-linejoin="round" opacity="1" fill="none"></path><path d="M1148.12 609C1157.92 559.88 1158.92 519.87 1150.42 517.87 1150.22 517.77 1150.02 517.77 1149.72 517.77 1141.11 517.77 1126.71 555.38 1117.01 603.5L1116.61 605.4 1148.02 609.2 1148.12 609Z" fill="#231f20" opacity="1" stroke-width="4" stroke="none"></path><path d="M1151.72 589.09L1152.92 581.39C1152.92 581.19 1152.82 581.09 1152.72 581.09 1150.32 580.69 1132.61 576.39 1132.51 547.78 1132.51 547.48 1132.11 547.38 1132.01 547.68 1129.91 553.58 1122.61 575.49 1117.01 603.5L1116.71 605.1C1116.71 605.3 1116.81 605.4 1116.91 605.4L1147.82 609.1C1147.92 609.1 1148.12 609 1148.12 608.9L1151.72 589.09Z" fill="#000000" opacity="0.2" stroke-width="4" stroke="none"></path><path d="M1182.03 649.72C1229.94 635.12 1265.26 616.01 1262.26 606.21 1261.16 602.61 1254.95 600.7 1244.25 600.7 1226.54 600.7 1198.63 605.91 1169.62 614.61L1167.72 615.21 1181.83 649.92 1182.03 649.72Z" fill="#231f20" opacity="1" stroke-width="4" stroke="none"></path><path d="M1181.83 649.62C1181.93 649.72 1182.03 649.82 1182.13 649.72 1210.04 641.22 1235.35 630.61 1249.75 621.11L1250.35 620.71H1249.65C1241.45 620.71 1219.04 620.11 1207.04 605.31 1206.94 605.21 1206.84 605.21 1206.74 605.21 1194.43 607.71 1181.03 610.91 1167.92 615.01 1167.72 615.11 1167.72 615.21 1167.72 615.41 1169.12 618.61 1180.33 647.12 1181.83 649.62Z" fill="#000000" opacity="0.2" stroke-width="4" stroke="none"></path><path d="M1063.79 703.73C1097.8 703.73 1120.31 679.92 1121.61 678.42H1163.32C1163.52 678.42 1163.62 678.62 1163.62 678.82L1159.42 694.53 1159.12 695.63C1165.12 698.93 1172.22 700.43 1180.23 700.43 1200.63 700.43 1224.64 688.52 1229.14 662.32 1230.95 651.91 1229.24 643.21 1224.14 636.41 1216.04 625.6 1201.74 623.2 1199.93 622.9 1201.64 602.3 1193.43 589.49 1175.93 585.99 1173.53 585.49 1171.02 585.29 1168.52 585.29 1148.42 585.29 1133.71 601.69 1132.41 603.3 1127.11 600.59 1122.01 599.19 1117.21 599.19 1101.8 599.19 1094.6 614 1093.7 616 1086.4 611.3 1079.09 608.8 1071.89 608.8 1063.49 608.8 1055.78 612.2 1050.18 618.4 1044.68 624.5 1041.88 632.41 1042.58 640.11 1025.97 644.81 1019.17 659.11 1019.67 671.12 1019.97 678.32 1022.77 685.22 1027.58 690.63 1032.88 696.63 1040.58 700.73 1049.68 702.43 1054.48 703.33 1059.19 703.73 1063.79 703.73 1063.69 703.73 1063.69 703.73 1063.79 703.73Z" fill="#30a8ff" opacity="1" stroke-width="4" stroke="none"></path><path d="M1042.58 640.12C1043.18 651.42 1044.98 656.22 1044.98 656.22" stroke="#505050" stroke-width="4" stroke-linecap="round" stroke-linejoin="round" opacity="1" fill="none"></path><path d="M1171.32 665.53C1177.73 665.53 1182.83 663.03 1185.33 658.62 1189.93 650.62 1184.53 638.92 1173.23 632.42 1168.52 629.71 1163.32 628.21 1158.52 628.21 1152.12 628.21 1147.02 630.71 1144.52 635.12 1142.31 639.02 1142.31 643.82 1144.62 648.82 1146.92 653.72 1151.12 658.22 1156.62 661.33 1161.32 664.03 1166.52 665.53 1171.32 665.53Z" fill="#ffffff" opacity="1" stroke-width="4" stroke="none"></path><path d="M1165.82 649.52C1166.72 649.52 1167.42 649.12 1167.82 648.52 1168.52 647.42 1167.72 645.72 1166.12 644.82 1165.52 644.42 1164.72 644.22 1164.02 644.22 1163.12 644.22 1162.42 644.62 1162.02 645.22 1161.72 645.82 1161.72 646.52 1162.02 647.22 1162.32 647.92 1162.92 648.52 1163.72 648.92 1164.42 649.32 1165.12 649.52 1165.82 649.52Z" fill="#505050" opacity="1" stroke-width="4" stroke="none"></path><path d="M1082.19 580.1C1085.29 580.1 1088.4 579.6 1091.4 578.6 1105.4 574.1 1113.6 560.49 1109.6 548.19 1106.6 538.88 1097.2 532.68 1086.3 532.68 1083.19 532.68 1080.09 533.18 1077.09 534.18 1063.09 538.68 1054.88 552.29 1058.89 564.59 1061.79 573.8 1071.19 580.1 1082.19 580.1Z" fill="#b376dd" opacity="1" stroke-width="4" stroke="none"></path><path d="M1083.99 559.89C1084.49 559.89 1084.89 559.79 1085.29 559.69 1086.3 559.39 1087.1 558.69 1087.6 557.89 1088.1 556.99 1088.2 556.09 1088 555.19 1087.6 553.79 1086.2 552.89 1084.49 552.89 1083.99 552.89 1083.59 552.99 1083.19 553.09 1082.19 553.39 1081.39 554.09 1080.89 554.89 1080.39 555.79 1080.29 556.69 1080.49 557.59 1080.89 558.99 1082.29 559.89 1083.99 559.89Z" fill="#0f0c10" opacity="1" stroke-width="4" stroke="none"></path><path d="M1121.61 678.43C1127.11 673.43 1132.01 665.23 1132.01 665.23" stroke="#505050" stroke-width="4" stroke-linecap="round" stroke-linejoin="round" opacity="1" fill="none"></path><path d="M1093.7 616.01C1096.6 617.71 1099.6 619.91 1102 622.21" stroke="#505050" stroke-width="4" stroke-linecap="round" stroke-linejoin="round" opacity="1" fill="none"></path><path d="M1199.93 622.91C1199.63 627.51 1198.93 632.32 1198.13 636.82" stroke="#505050" stroke-width="4" stroke-linecap="round" stroke-linejoin="round" opacity="1" fill="none"></path><path d="M1132.41 603.3C1130.71 605 1129.41 606.9 1128.21 608.4" stroke="#505050" stroke-width="4" stroke-linecap="round" stroke-linejoin="round" opacity="1" fill="none"></path><path d="M840.71 752.56C846.51 752.56 851.51 751.86 856.12 750.46L856.32 750.36 856.22 750.16C845.61 721.75 816.3 674.23 792.79 659.02 780.79 651.32 701.36 608.01 680.06 610.41 668.85 610.51 666.15 616.61 669.55 627.31 675.25 644.82 692.96 673.43 711.27 700.34 715.07 705.94 721.77 714.64 726.77 721.05 730.77 726.15 736.47 729.55 742.78 730.45 773.09 734.55 811.7 752.56 840.71 752.56Z" fill="#004b91" opacity="0.2" stroke-width="4" stroke="none"></path><path d="M786.29 411.24C786.29 411.04 786.49 410.94 786.69 411.04 790.59 413.34 795.6 414.64 800.5 414.64 804.5 414.64 810.2 413.74 814.8 409.64 822.2 402.94 824.41 393.93 822.9 375.93 822.9 375.83 822.9 375.73 823 375.73 824.11 374.83 828.91 370.73 828.81 367.42 828.71 364.42 822.9 362.12 821.5 361.72 821.4 361.72 821.3 361.62 821.3 361.52L821.1 359.72C820.4 353.12 818.9 346.62 817.1 341.32 813.3 329.91 804.9 325.71 800.1 319.01 800.1 319.01 800.1 318.91 800 318.91 790.99 312.81 784.19 318.51 772.79 318.51 764.08 318.51 757.58 311.71 750.78 315.51 733.27 325.21 728.37 350.92 727.77 360.72 727.37 368.02 726.77 381.13 726.27 393.73 725.77 406.04 725.17 418.74 724.77 426.34V426.54L782.89 429.55C782.99 429.55 783.19 429.45 783.19 429.35L784.49 421.94 786.29 411.24Z" fill="#cf5934" opacity="1" stroke-width="4" stroke="none"></path><path d="M786.39 410.84L785.49 410.34C781.29 408.04 777.89 405.54 774.19 402.74 773.99 402.54 773.59 402.84 773.79 403.14L784.09 421.04C784.19 421.24 784.59 421.24 784.59 420.94L786.39 410.84Z" fill="#030202" opacity="0.2" stroke-width="4" stroke="none"></path><path d="M807.2 380.53C808 383.93 812.5 385.43 815 385.13" stroke="#030202" stroke-width="4" stroke-linecap="round" stroke-linejoin="round" opacity="1" fill="none"></path><path d="M810 365.62C808.56 365.62 807.4 364.46 807.4 363.02 807.4 361.58 808.56 360.42 810 360.42 811.44 360.42 812.6 361.58 812.6 363.02 812.6 364.46 811.44 365.62 810 365.62Z" fill="#010005" opacity="1" stroke-width="4" stroke="none"></path><path d="M773.09 401.94C773.09 401.94 781.39 408.14 786.39 410.84" stroke="#030202" stroke-width="4" stroke-linecap="round" stroke-linejoin="round" opacity="1" fill="none"></path><path d="M734.37 318.31C721.83 318.31 711.67 308.14 711.67 295.6 711.67 283.06 721.83 272.89 734.37 272.89 746.92 272.89 757.08 283.06 757.08 295.6 757.08 308.14 746.92 318.31 734.37 318.31Z" fill="#010005" opacity="1" stroke-width="4" stroke="none"></path><path d="M993.76 634.72C996.36 634.72 999.57 633.22 1000.27 626.01 1000.37 626.01 1000.37 626.01 1000.47 626.01 1008.07 626.01 1009.27 618.61 1005.57 610.31 1003.37 604.81 997.96 591.7 992.76 583.8 992.66 583.6 992.76 583.4 992.96 583.4 995.06 583.2 1000.67 582.3 1002.17 579.2 1002.17 579.2 1002.17 579.2 1002.17 579.1 1004.57 570.29 984.56 561.49 961.05 548.99 951.85 544.29 942.85 539.98 933.34 537.08 933.24 537.08 933.14 537.08 933.04 537.18L910.03 558.39C909.93 558.49 909.93 558.49 909.93 558.59 909.83 560.69 908.73 590 913.94 591.2 934.34 594.2 941.85 601.7 947.15 617.21 948.85 622.81 952.85 630.51 957.35 624.61 959.35 621.51 960.35 615.51 960.15 611.41 960.15 611.11 960.55 611.01 960.65 611.31 964.65 619.31 975.36 638.32 986.96 632.52 987.06 632.52 987.16 632.52 987.26 632.52 988.06 632.92 990.96 634.72 993.76 634.72Z" fill="#cf5934" opacity="1" stroke-width="4" stroke="none"></path><path d="M1000.17 625.81C990.76 602.21 976.16 582 976.16 582" stroke="#030202" stroke-width="4" stroke-linecap="round" stroke-linejoin="round" opacity="1" fill="none"></path><path d="M987.16 632.01C976.76 609.3 964.15 588.29 964.15 588.29" stroke="#030202" stroke-width="4" stroke-linecap="round" stroke-linejoin="round" opacity="1" fill="none"></path><path d="M960.05 609.91L953.15 595" stroke="#030202" stroke-width="4" stroke-linecap="round" stroke-linejoin="round" opacity="1" fill="none"></path><path d="M933.14 537.08L932.94 536.98C909.93 528.38 870.72 513.97 868.12 512.97 868.02 512.97 868.02 512.87 868.02 512.87 866.82 511.07 853.92 491.57 836.01 471.26 818.9 451.65 793.69 427.14 770.89 421.94 762.18 419.94 753.98 418.94 746.58 418.94 716.07 418.94 696.76 435.65 687.56 470.06 686.56 473.86 685.46 477.86 684.26 482.06 678.35 503.57 670.95 530.28 665.85 565.19L716.37 574H716.47L771.89 565.29 771.99 565.19C772.09 565.09 786.59 551.39 791.89 535.78 791.99 535.58 792.19 535.48 792.39 535.68 805.2 548.39 819.9 558.99 835.91 567.19 860.62 580.1 913.44 591.1 914.04 591.2H914.24L933.14 537.08Z" fill="#5b2c39" opacity="1" stroke-width="4" stroke="none"></path><path d="M772.09 564.99C772.19 564.99 772.19 564.99 772.29 564.89 773.49 563.79 787.19 550.39 791.99 535.38L791.69 535.08 769.09 513.17C768.99 513.07 768.79 513.07 768.69 513.17 767.99 514.27 765.58 518.38 765.08 527.18 764.08 539.08 762.78 553.79 743.68 564.89H744.38L772.09 564.99Z" fill="#000000" opacity="0.2" stroke-width="4" stroke="none"></path><path d="M791.89 535.18L768.89 512.97" stroke="#000000" stroke-width="4" stroke-linecap="round" stroke-linejoin="round" opacity="1" fill="none"></path><path d="M668.25 523.78C669.75 523.78 672.55 523.68 673.35 523.58 673.45 523.58 673.55 523.48 673.55 523.38 682.86 482.46 693.66 455.05 694.86 451.85 694.86 451.75 694.96 451.65 695.16 451.65 695.56 451.65 696.46 451.75 697.56 451.75 709.47 451.75 749.18 447.65 761.98 394.53V394.43L761.88 394.33C761.68 394.13 738.28 378.83 745.98 362.62 748.48 357.42 752.48 354.82 757.88 354.82 767.59 354.82 778.99 363.42 780.59 364.72 780.69 364.82 780.89 364.82 780.99 364.72 782.09 363.62 788.09 356.92 785.29 345.92 785.19 345.62 785.49 345.42 785.69 345.62 789.29 348.12 792.49 349.42 795.2 349.42 798.8 349.42 801.5 347.02 802.9 342.52 803.6 340.21 803.8 337.91 803.9 336.61 803.9 336.41 804.2 336.31 804.4 336.41 809.1 340.52 811.5 342.02 816.9 341.22 817 341.22 817.1 341.12 817.2 340.92 817.9 334.41 812.2 319.61 803.5 313.61 794.49 307.5 782.49 305 771.09 305 762.38 305 754.08 307 747.28 310.8 731.97 319.21 723.17 342.22 721.17 355.22 721.17 355.42 720.97 355.52 720.77 355.42 718.07 354.42 705.46 350.22 690.06 350.22 676.65 350.22 664.75 353.32 654.65 359.32 636.34 370.33 630.64 386.43 629.14 398.03 627.24 412.24 630.54 425.84 634.34 434.25 634.44 434.35 634.34 434.55 634.24 434.65 617.33 443.15 608.03 466.06 612.73 487.07 615.43 497.97 625.94 523.78 668.25 523.78Z" fill="#010005" opacity="1" stroke-width="4" stroke="none"></path><path d="M932.94 537.18L913.94 591.2" stroke="#000000" stroke-width="4" stroke-linecap="round" stroke-linejoin="round" opacity="1" fill="none"></path><path d="M901.93 526.18L881.12 582.2" stroke="#000000" stroke-width="4" stroke-linecap="round" stroke-linejoin="round" opacity="1" fill="none"></path><path d="M760.88 372.13L767.89 377.13" stroke="#030202" stroke-width="4" stroke-linecap="round" stroke-linejoin="round" opacity="1" fill="none"></path><path d="M919.14 734.35C953.95 671.03 941.55 633.42 918.34 619.21 906.53 612.01 881.22 601.91 827.61 594.6 798.1 590.6 772.39 589.2 768.49 589 768.29 589 768.19 588.8 768.19 588.7L772.09 565.29C772.09 565.09 771.99 564.99 771.79 564.99L665.75 565.09C664.65 572.9 663.85 580.9 663.05 588.8 662.85 590.6 662.75 592.4 662.55 594.2 659.35 630.51 666.35 655.62 684.66 673.43 695.56 684.03 722.27 696.74 787.59 696.74 816.2 696.74 840.81 694.14 845.91 693.74 846.11 693.74 846.31 693.94 846.21 694.14 842.71 699.84 822.2 733.75 807.1 781.37 807.1 781.47 807.1 781.57 807.1 781.67L808.3 783.37C808.4 783.47 808.4 783.47 808.5 783.47H891.53C891.63 783.47 891.63 783.47 891.73 783.47L893.73 782.07 893.83 781.97C894.73 780.57 908.83 753.06 919.14 734.35Z" fill="#a0d1ff" opacity="1" stroke-width="4" stroke="none"></path><path d="M861.02 708.44C872.82 701.44 873.22 692.64 873.12 690.94 873.12 690.74 872.92 690.64 872.82 690.64L846.91 693.74H846.61C846.51 693.84 837.81 707.54 827.41 729.95 827.31 730.25 827.61 730.45 827.81 730.25 831.21 727.15 842.61 717.44 861.02 708.44Z" fill="#004b91" opacity="0.2" stroke-width="4" stroke="none"></path><path d="M768.19 589L772.19 564.99H743.68L753.68 588.8 768.19 589Z" fill="#004b91" opacity="0.2" stroke-width="4" stroke="none"></path><path d="M912.74 870.2C912.94 870.1 913.04 869.9 912.94 869.8 903.53 855.89 877.22 852.09 877.02 832.38 877.02 826.08 878.82 818.38 882.73 808.08 882.83 807.88 882.63 807.68 882.43 807.68L858.12 807.18C849.51 807.18 841.61 811.88 838.41 819.88L827.91 846.49C827.81 846.79 827.51 845.89 827.41 845.49L825.71 828.48C825.21 822.78 820.8 817.18 815.1 817.18L798.3 817.08C798.3 817.08 797.4 817.58 797.4 817.68L797.1 819.08C793.49 836.19 791.29 853.09 790.59 870.5 790.59 870.6 790.69 870.7 790.79 870.8 793.09 871.5 814.6 878.8 839.11 878.9 871.52 878.9 908.73 871.4 912.74 870.2Z" fill="#5b2c39" opacity="1" stroke-width="4" stroke="none"></path><path d="M839.01 820.38C842.21 812.58 849.71 807.48 858.12 807.48L882.83 807.68 883.03 806.98C885.53 800.57 892.53 785.07 893.73 782.47 893.83 782.27 893.63 782.07 893.43 782.07L807.3 781.57C807.2 781.57 807.1 781.67 807 781.77 803.2 793.67 799.8 805.48 797.4 817.18L797.3 817.68 814.5 818.28C820.1 818.28 824.81 822.58 825.21 828.18L827.21 847.69C827.21 847.99 827.61 847.99 827.71 847.79L839.01 820.38Z" fill="#cf5934" opacity="1" stroke-width="4" stroke="none"></path><path d="M916.24 886.1C917.14 880.6 916.24 874.9 913.14 870.3 913.04 870.2 913.04 870.2 912.94 870.2L790.79 870.8C790.59 870.8 790.49 870.9 790.49 871.1 790.29 876.6 790.49 881.3 790.59 886.3 790.59 886.5 790.69 886.6 790.89 886.6L915.94 886.4C916.14 886.3 916.24 886.2 916.24 886.1Z" fill="#282828" opacity="1" stroke-width="4" stroke="none"></path><path d="M767.89 589.2C745.88 588.2 730.87 588.2 730.87 588.2" stroke="#004b91" stroke-width="4" stroke-linecap="round" stroke-linejoin="round" opacity="1" fill="none"></path><path d="M772.19 564.99L665.85 565.19" stroke="#004b91" stroke-width="4" stroke-linecap="round" stroke-linejoin="round" opacity="1" fill="none"></path><path d="M846.61 693.74C846.61 693.74 823.8 728.85 807.2 781.47" stroke="#004b91" stroke-width="4" stroke-linecap="round" stroke-linejoin="round" opacity="1" fill="none"></path><path d="M771.79 696.54C810.8 697.34 846.61 693.74 846.61 693.74L873.12 690.64" stroke="#004b91" stroke-width="4" stroke-linecap="round" stroke-linejoin="round" opacity="1" fill="none"></path><path d="M880.22 842.99L870.32 851.59" stroke="#000000" stroke-width="4" stroke-linecap="round" stroke-linejoin="round" opacity="1" fill="none"></path><path d="M887.13 850.09L878.92 857.49" stroke="#000000" stroke-width="4" stroke-linecap="round" stroke-linejoin="round" opacity="1" fill="none"></path><path d="M623.14 741.75L632.64 770.16" stroke="#000000" stroke-width="4" stroke-linecap="round" stroke-linejoin="round" opacity="1" fill="none"></path><path d="M546.51 741.75L539.61 775.06" stroke="#000000" stroke-width="4" stroke-linecap="round" stroke-linejoin="round" opacity="1" fill="none"></path></g><g><path d="M1457.57 1081.05H1378.86C1378.86 1059.33 1396.49 1041.7 1418.21 1041.7 1439.93 1041.7 1457.57 1059.26 1457.57 1081.05Z" fill="#231f20" opacity="1" stroke-width="4" stroke="none"></path><path d="M1449.4 1056.99C1444.32 1067.43 1432.9 1076.36 1418.21 1081.05H1457.57C1457.57 1071.97 1454.54 1063.65 1449.4 1056.99Z" fill="#000000" opacity="0.3" stroke-width="4" stroke="none"></path><path d="M1315.28 1055.32H1266.85C1266.85 1041.92 1277.67 1031.1 1291.06 1031.1 1304.46 1031.1 1315.28 1041.92 1315.28 1055.32Z" fill="#231f20" opacity="1" stroke-width="4" stroke="none"></path><path d="M1282.51 1055.32H1315.28C1315.28 1047.22 1311.35 1040.11 1305.22 1035.72 1301.89 1044.12 1293.49 1051.54 1282.51 1055.32Z" fill="#000000" opacity="0.3" stroke-width="4" stroke="none"></path></g></svg>